<?xml version="1.0" standalone="no"?>
<!DOCTYPE svg PUBLIC "-//W3C//DTD SVG 1.1//EN" "http://www.w3.org/Graphics/SVG/1.1/DTD/svg11.dtd" >
<svg xmlns="http://www.w3.org/2000/svg">
<metadata></metadata>
<defs>
<font id="tribbon_bregular" horiz-adv-x="993" >
<font-face units-per-em="2048" ascent="1536" descent="-512" />
<missing-glyph horiz-adv-x="614" />
<glyph horiz-adv-x="0" />
<glyph unicode="&#xd;" horiz-adv-x="1024" />
<glyph unicode=" "  horiz-adv-x="614" />
<glyph unicode="&#x09;" horiz-adv-x="614" />
<glyph unicode="&#xa0;" horiz-adv-x="614" />
<glyph unicode="-" d="M80 516v21h835v-21h-835zM80 553v20h835v-20h-835zM80 590v20h835v-20h-835zM80 629v18h835v-18h-835zM80 666v20h835v-20h-835zM80 702v21h835v-21h-835zM80 739v21h835v-21h-835zM80 776v21h835v-21h-835z" />
<glyph unicode="A" horiz-adv-x="1290" d="M59 0l82 311h717l-6 21h-705l5 16h696l-4 21h-688l4 16h678l-4 21h-668l4 16h659l-6 20h-647l4 17h639l-6 20h-629l6 19h619l-4 18h-610l4 19h600l-4 18h-590l196 758h19l-193 -740h21l192 740h19l-193 -740h21l192 740h17l-193 -740h21l194 740h17l-193 -740h20l193 740 h18l-192 -740h20l193 740h20l344 -1311h-18l-78 293h-440l-76 -293h-18l78 293h-21l-78 -293h-16l76 293h-21l-76 -293h-18l76 293h-21l-76 -293h-18l78 293h-21l-77 -293h-17l76 293h-21l-77 -293h-17l76 293h-20l-76 -293h-19l78 293h-22l-76 -293h-19zM418 571h22 l174 668l-10 41zM457 571h20l156 596l-10 39zM496 571h295l-150 562zM635 1311h18l344 -1311h-18zM674 1311h18l344 -1311h-18zM713 1311h16l346 -1311h-18zM750 1311h18l344 -1311h-16zM788 1311h19l344 -1311h-18zM827 1311h17l346 -1311h-19zM866 1311h17l344 -1311h-17z " />
<glyph unicode="B" horiz-adv-x="1163" d="M84 528h590h9q71 0 137 29q70 31 121.5 84t82.5 123q29 66 29 138v9v9q0 70 -29 136q-31 70 -83 124q-53 54 -121 84q-64 29 -135 28h-9h-314v-18h314h9q67 0 129 -28q66 -30 114 -80t78 -116q28 -62 28 -130v-9v-9q0 -69 -28 -131q-30 -66 -78.5 -116.5t-115.5 -80.5 q-63 -28 -129 -27h-9h-590v18l598 2q68 0 129 28t107 76q48 49 74 111q25 58 24 120v9v9q0 64 -26 122q-28 62 -75 110t-108.5 75.5t-128.5 27.5h-316v-18h314h9q57 -1 113 -25q60 -26 104 -71t70 -105q25 -55 25 -116v-9v-9q-1 -61 -25 -117q-26 -60 -70 -105 q-44 -46 -104 -72q-55 -25 -115 -24h-9h-590v20l590 -2h9q57 0 109 22q56 24 98 68q42 42 66 100q23 53 23 110v9v9q-1 56 -23 108q-24 56 -65 98.5t-96.5 67.5t-116.5 25h-316v-19h314q57 0 109.5 -23.5t91 -63.5t62.5 -92q22 -48 22 -101v-9v-9q0 -54 -22 -102 q-24 -52 -63.5 -92t-91.5 -64q-48 -22 -101 -21h-9l-590 -2v20h590h9q48 -1 93 19q49 22 87 60q37 38 59 87q20 45 20 95v9v9q0 48 -20 94q-22 50 -58.5 87.5t-84.5 59t-101 21.5h-316v-19h314q49 0 95 -20.5t80 -54.5q35 -35 55 -81q19 -42 18 -87v-9v-9q0 -46 -18 -88 q-20 -46 -55.5 -81t-81.5 -55q-42 -19 -86 -19h-9h-590v19h596q45 0 87 19.5t72.5 51t48.5 73.5q17 38 17 80v9v9q-1 40 -17 79q-18 43 -49.5 75t-73.5 51.5t-87 19.5h-316v-19h314q43 0 82 -17t67.5 -47t46.5 -69q16 -35 15 -73v-9v-9q1 -38 -15 -74q-18 -40 -48 -70 q-29 -28 -68 -46q-35 -16 -73 -16h-9h-590v19h590h9q33 0 65 13q36 15 64 43q28 27 43 63q13 31 13 67v10q0 39 -14 74t-41 62.5t-60.5 44t-72.5 16.5h-318v-18h314q35 0 66.5 -14.5t56 -39t38 -57.5t13.5 -68q0 -37 -13.5 -69.5t-38 -57t-57 -38t-67.5 -13.5h-590v19l596 2 q31 0 58.5 12t49 33.5t32.5 50.5t11 59v2q0 31 -11 59.5t-32.5 50t-50 35t-59.5 13.5h-316v-16l314 -2q27 0 52.5 -11.5t45 -31t29.5 -45t10 -52.5v-5q0 -54 -40 -95t-94 -41h-5h-590l2 541h20v-523h17v523h20v-523h17v523h18v-523h19v523h18v-523h18v523h19v-523h16v523h21 v-523h16v523h21v-523h16v523h20h314h9q75 0 143 -31q72 -33 127 -88t87 -128q30 -69 29 -143v-10v-12q1 -62 -19 -117q-22 -61 -63 -114q57 -53 90 -126q31 -69 31 -142v-9v-9q0 -72 -30 -140q-32 -72 -87 -126q-55 -52 -127 -84q-68 -30 -143 -30h-10h-254h-97h-20v508h-16 v-508h-21v508h-16v-508h-21v508h-16v-508h-19v508h-18v-508h-18v508h-19v-508h-18v508h-17v-508h-20v508h-17v-508h-20zM362 20h351h9q70 0 136 28q70 30 122 81t83 119q29 64 29 134v9v9q0 70 -30 134q-32 68 -85 119l-12 -12q51 -49 81 -113q28 -60 27 -128v-9v-9 q1 -68 -27 -128q-30 -64 -79 -113t-116 -77q-62 -26 -128 -25h-10h-351v-19zM362 57h359q68 0 128 28t106 74q46 47 74 107q26 56 26 116v9v9q0 64 -27 120q-29 60 -76 107l-12 -13q46 -45 72 -102q25 -53 24 -112v-9v-9q0 -58 -24 -112q-26 -58 -72 -102q-44 -44 -104 -70 q-55 -24 -114 -24h-9h-351v-17zM362 92h351h9q56 0 108 22q56 24 98 66q44 40 68 96q23 51 22 106v9v9q0 54 -24 106q-26 56 -68 96q-8 -8 -15 -10q41 -41 65 -92q23 -47 23 -100v-9v-9q1 -50 -21 -98q-24 -52 -64 -91t-92 -61q-48 -21 -100 -21h-9h-351v-19zM362 129h351h9 q48 -1 93 19q49 22 87 58t60 84q20 44 19 92v9v8q1 49 -21 95q-24 50 -63 86q-4 -2 -8 -4.5t-8 -6.5q39 -35 61 -81q21 -42 21 -89v-8v-9q-1 -44 -19 -85q-20 -45 -55 -79t-81 -53.5t-95 -19.5h-115q-51 0 -112.5 1t-123.5 1v-18zM362 164h355q45 0 87 18.5t73.5 50t49 72.5 t17.5 86v8q0 45 -20 85q-22 44 -60 77q-8 -8 -16 -10q36 -29 58 -71q21 -39 20 -81v-8q0 -43 -16.5 -81t-46 -66.5t-68.5 -45t-82 -16.5h-351v-18zM362 201h351q39 0 74.5 15t62.5 41t42 60.5t15 73.5v7q-1 41 -21 77q-22 39 -57 68q-6 -4 -18 -8q35 -25 57 -63 q21 -35 21 -74v-7q0 -35 -13.5 -66.5t-37.5 -54.5q-26 -24 -58 -38q-29 -13 -59 -13h-8q-55 -2 -115 -2h-236v-16zM362 238h357q31 0 58.5 13t49 33.5t32.5 47t11 57.5v2v7q0 39 -22 72q-24 36 -60 56q-10 -2 -26 -6q40 -16 66 -51q25 -33 24 -72v-6q0 -29 -11.5 -53.5 t-30.5 -44t-45 -29.5t-52 -10h-351v-16zM362 272h351h5q46 0 81 35q37 37 35 84q2 47 -35 83t-86 36h-351v-238zM362 788h312h5q46 0 81 36q37 38 35 87q2 47 -35 85q-35 36 -79 36h-5l-314 2v-246z" />
<glyph unicode="C" horiz-adv-x="1060" d="M39 657v19q0 121 48 232q52 120 143.5 210t211.5 144q111 50 232 49h18q13 1 25 1q73 0 143 -20q82 -24 156 -65l-6 -19q-72 40 -152 64q-68 20 -141 21q-12 0 -25 -1h-10q-122 0 -234 -48q-116 -50 -204 -138t-140 -205q-48 -109 -47 -226v-18v-18q-1 -117 47 -225 q52 -116 140 -204q88 -90 204 -142q108 -49 226 -48h18q12 -1 24 -1q77 0 150 23q84 26 158 73l8 -19q-76 -46 -162 -72q-74 -22 -153 -23q-12 0 -25 1h-18q-120 0 -232 49q-120 53 -212 145q-91 90 -143 210q-48 111 -48 232v19zM78 657v19q0 113 45 217q49 113 135 199 t198 135q104 45 217 45h19q12 1 24 1q71 -1 139 -21q79 -24 149 -64l-7 -17q-69 41 -145 63q-70 21 -146 21h-14h-14q-74 1 -142 -19q-76 -22 -143 -61.5t-122.5 -95t-95.5 -123.5q-39 -67 -61 -143q-20 -70 -20 -142v-14v-19q0 -112 44 -212q48 -110 131 -192t193 -132 q101 -46 212 -45h18h7q168 0 311 93l6 -17q-72 -47 -154 -71q-70 -21 -145 -22q-12 0 -25 1h-18q-114 0 -218 46q-112 50 -198 135t-135 199q-45 105 -45 218v18zM115 657v18q0 107 43 205q47 106 127 185.5t185 125.5q101 44 212 44h10q12 1 24 1q69 0 134 -20 q76 -24 141 -65l-4 -16q-67 41 -141 63q-68 21 -141 21h-13h-9q-108 1 -206 -43q-102 -46 -180 -124t-124 -180q-42 -94 -42 -197v-18v-18q0 -103 42 -198q46 -103 124 -181q79 -78 181 -124q94 -42 196 -42h18h13q75 0 147 22q78 24 143 68l6 -16q-67 -44 -145 -68 q-71 -22 -151 -22h-13h-18q-107 0 -204 43q-105 47 -185 127t-127 186q-43 98 -43 205v18zM152 657v18q0 99 40 191q44 100 118 174t174 117q95 41 198 41h10h13q71 0 137 -20q72 -22 139 -64l-6 -16q-61 42 -133 64q-66 21 -137 20h-13h-9q-99 0 -191 -40 q-96 -42 -169 -115t-115 -169q-40 -92 -40 -191v-10v-9q0 -100 40 -192q42 -96 114 -170q74 -73 170 -115q92 -40 191 -40h9h12q72 -1 140 21q74 24 137 67l6 -16q-67 -43 -141 -67q-69 -22 -141 -21h-13h-18q-99 0 -190 40q-99 44 -173.5 118.5t-118.5 174.5 q-40 90 -41 187q0 11 1 22zM188 657v18q0 91 37 175q41 92 112 161.5t163 110.5q88 39 183 39h9h12q68 -1 134 -21q70 -22 131 -63l-4 -16q-59 41 -129 63q-64 21 -132 21h-12h-10q-93 0 -177 -37q-89 -39 -156.5 -106.5t-106.5 -156.5q-37 -85 -37 -178v-10v-10 q0 -93 37 -178q39 -90 106.5 -157.5t156.5 -106.5q85 -37 177 -37h10h12q68 0 132 20q68 22 129 64l8 -14q-61 -40 -132 -64q-65 -22 -137 -22h-12h-9q-95 0 -183 38q-92 40 -163 110.5t-112 162.5q-37 84 -37 176v18zM225 657v9q0 88 36 170q38 86 103 150q64 64 149 102 q81 36 170 36h9h12q66 0 128 -20q68 -22 126 -64l-6 -16q-56 42 -122 64q-61 21 -126 20h-12h-9q-85 0 -163 -34q-82 -36 -146 -100q-62 -62 -98 -144q-34 -77 -34 -163v-10v-10q0 -85 34 -163q36 -83 99 -145.5t145 -98.5q74 -33 154 -33h18q11 -1 22 -1q60 0 114 20 q64 22 122 63l8 -17q-58 -42 -126 -64q-62 -21 -128 -20h-12h-9q-89 0 -170 36q-85 38 -149.5 102.5t-102.5 150.5q-36 82 -36 171v9zM262 657v9q0 81 33 156q35 79 95 138q60 60 138 95q72 32 150 32h14h12q66 -1 124 -21q64 -22 118 -62l-4 -17q-52 41 -116 63 q-54 19 -113 20q-10 0 -21 -1h-10q-78 -1 -148 -31q-74 -32 -132 -89.5t-92 -133.5q-31 -70 -31 -145v-13v-9q-1 -78 31 -150q34 -76 92 -134t132 -90q70 -31 148 -30h10q10 -1 20 -1q56 -1 108 19q60 22 114 62l8 -19q-110 -80 -243 -80h-7h-9q-81 0 -155 33 q-78 35 -138 94.5t-95 139.5q-33 75 -33 156v9zM299 657v9q-1 73 29 141q32 72 86 127q56 55 128 87q68 30 141 30h9h11q63 -1 119 -21q62 -22 114 -63l-6 -19q-48 40 -110 64q-53 20 -109 21q-10 0 -19 -1h-10q-70 0 -134 -28q-68 -30 -120.5 -82t-82.5 -120 q-28 -64 -28 -136v-9v-9q0 -70 28 -136q30 -70 82 -122q53 -52 121 -82q64 -28 134 -27h10h11q57 -1 111 19q60 22 108 58l8 -18q-52 -40 -112 -60q-55 -19 -114 -18h-12h-9q-73 0 -141 30q-72 32 -127 87t-87 127q-30 68 -29 142v9z" />
<glyph unicode="D" horiz-adv-x="1251" d="M86 0v1053h371h11q82 0 159 -29q82 -31 146.5 -85t102.5 -128q36 -70 35 -148v-8v-8q1 -77 -35 -147q-38 -72 -102 -126q-65 -56 -147 -86q-77 -29 -159 -28h-11h-90v-18h90h11q84 0 165 30q86 32 152.5 88t106.5 132q38 73 38 155v8v8q0 83 -38 157q-40 77 -106.5 133.5 t-152.5 88.5q-81 30 -165 29h-11h-371v19h371h11q87 0 170 -31q89 -33 158 -93q70 -58 112 -138q40 -76 40 -165v-8v-8q0 -87 -40 -164q-42 -80 -111.5 -138t-158.5 -91q-84 -31 -170 -31h-11h-90v-18h90h20q86 1 168 31q92 34 164 95.5t116 144.5q42 79 42 171v8v8 q0 91 -42 173q-44 84 -116 145t-164 95q-87 32 -177 32h-11h-371v18h371h11q94 0 184 -32q96 -34 170.5 -98t119.5 -152q43 -84 43 -180v-8.5v-8.5q0 -95 -43 -179q-45 -87 -119.5 -150.5t-170.5 -99.5q-87 -32 -175 -32h-20h-90v-18h90h20q89 0 179 33q100 37 178 103 q76 65 124 156q46 87 46 187v8v9q0 102 -46 188q-48 90 -125 156.5t-177 102.5q-94 34 -188 34h-11h-371v18h371h11q100 -1 196 -35q102 -36 182 -105t129 -163q47 -90 47 -196v-8.5v-9.5q0 -106 -47 -195q-49 -93 -129 -161.5t-182 -106.5q-91 -34 -183 -34q-12 0 -24 1 h-16.5h-27h-27.5h-19v-21h20h29.5t27 1t13.5 1h20q95 0 191 35q106 39 189 109.5t133 168t50 211.5q0 115 -50 213.5t-133 169t-189 108.5q-100 36 -200 36h-11h-371v18h371h20q101 0 199 -36q108 -40 193 -112.5t137.5 -175t52.5 -221.5t-52.5 -220t-137.5 -174t-193 -114 q-97 -37 -195 -37q-12 0 -24 1h-90v-19h90h20q103 0 205 38q112 42 199.5 117t141.5 180t54 228q0 125 -54 229.5t-142 180.5t-200 117q-102 37 -204 37h-20h-187q-82 0 -184 2v18h180h67t60.5 -1t44 -1h19.5h20q107 0 211 -38q114 -42 204.5 -120t147 -186.5t56.5 -237.5 t-56.5 -236.5t-146.5 -185t-205 -120.5q-105 -39 -211 -39h-20h-90v-19h90h20q109 0 217 40q118 44 211.5 124t151 191.5t57.5 244.5t-57.5 246t-151.5 193t-212 123q-106 39 -211 39l-25 -1h-187h-184v21h371h11q118 0 232 -42q120 -44 217 -127t156.5 -198.5t59.5 -253.5 q0 -137 -59.5 -252.5t-155.5 -197.5q-98 -82 -218 -127q-111 -41 -223 -41h-20h-90v-19h90h20q115 0 229 42q124 46 223 130t160.5 203t61.5 262t-61.5 262t-159.5 204q-100 85 -224 131q-115 42 -229 42h-20h-371v19h371h20q119 0 236 -43q127 -47 229 -134t164.5 -210 t62.5 -271q0 -147 -65.5 -269t-170 -209t-234.5 -134q-120 -43 -239 -43h-20h-94v1034h-16v-1034h-21v1034h-16v-1034h-21v1034h-18v-1034h-18v1034h-19v-1034h-18v1034h-19v-1034h-20v1034h-17v-1034h-20v1034h-17v-1034h-20zM367 279h90h11q78 -1 152 27q80 30 140.5 81 t97.5 121q35 66 35 139v8v8q0 73 -35 139q-37 70 -98 122q-60 52 -140 82q-74 28 -152 28h-11h-90v-755z" />
<glyph unicode="E" horiz-adv-x="974" d="M84 0v532h16v-532h-16zM84 532v21h807v-21h-807zM84 569v21h807v-21h-807zM84 606v21h807v-21h-807zM84 643v21h807v-21h-807zM84 680v20h807v-20h-807zM84 717v20h807v-20h-807zM84 754v20h807v-20h-807zM84 791v520h16v-500h19v500h18v-500h19v500h18v-500h19v500h18 v-500h16v500h21v-500h16v500h21v-500h16v500h21v-500h16v500h559v-19h-539v-18h539v-19h-539v-18h539v-18h-539v-19h539v-18h-539v-19h539v-18h-539v-19h539v-18h-539v-18h539v-19h-539v-18h539v-19h-539v-223h533v-20h-807zM119 0v532h18v-532h-18zM156 0v532h18v-532h-18z M193 0v532h18v-532h-18zM227 0v532h21v-532h-21zM264 0v532h21v-532h-21zM301 0v532h21v-532h-21zM338 0v532h20v-258h539v-18h-539v-18h539v-17h-539v-18h539v-19h-539v-18h539v-19h-539v-18h539v-18h-539v-19h539v-18h-539v-19h539v-18h-539v-19h539v-18h-559z" />
<glyph unicode="F" horiz-adv-x="974" d="M84 0v553h807v-21h-533v-532h-20v532h-16v-532h-19v532h-18v-532h-19v532h-18v-532h-19v532h-18v-532h-18v532h-17v-532h-20v532h-17v-532h-20v532h-17v-532h-18zM84 569v21h807v-21h-807zM84 606v21h807v-21h-807zM84 643v21h807v-21h-807zM84 680v20h807v-20h-807z M84 717v18h807v-18h-807zM84 754v18h807v-18h-807zM84 791v520h18v-502h17v502h20v-502h17v502h20v-502h17v502h18v-502h18v502h19v-502h18v502h19v-502h18v502h19v-502h16v502h559v-19h-539v-18h539v-19h-539v-18h539v-18h-539v-19h539v-18h-539v-19h539v-18h-539v-19h539 v-18h-539v-18h539v-19h-539v-18h539v-19h-539v-225h533v-18h-807z" />
<glyph unicode="G" horiz-adv-x="1245" d="M82 657v18q0 121 49 233q53 120 143.5 210t209.5 142q116 51 241 51h10h14q79 0 154 -21q82 -22 154 -63l-6 -19q-72 41 -151 64q-73 20 -151 20h-14h-10q-121 0 -233 -48q-117 -50 -205 -138t-139 -205q-48 -109 -48 -226v-18v-18q0 -117 48 -225q51 -117 139 -205 t205 -139q106 -47 221 -47h22h15q67 0 137 16v20q-70 -16 -137 -16h-15h-19q-112 0 -216 45q-113 49 -198 134t-135 199q-46 106 -46 218v18v18q0 113 46 218q50 113 135 198t198 134q108 47 225 47h10q13 1 25 1q71 0 136 -19q77 -23 148 -64l-4 -19q-68 41 -146 63 q-71 21 -146 21h-13h-14q-72 0 -141 -19q-76 -22 -143.5 -61.5t-123 -95t-95.5 -123t-62 -143.5q-19 -70 -19 -142v-14v-19q0 -110 44 -212q48 -109 131 -191.5t192 -130.5q102 -45 213 -45h18q12 -1 23 -1q66 0 129 20v20q-61 -19 -124 -19q-14 0 -28 1h-18q-107 0 -204 43 q-105 47 -185 127t-127 186q-43 97 -43 203v18v18q0 107 43 205q47 105 127 185t185 126q101 44 212 44h10h13q73 0 144 -21q77 -22 142 -63l-6 -16q-66 41 -140 63q-67 21 -140 21h-13h-9q-108 0 -206 -43q-102 -46 -180 -123.5t-124 -180.5q-42 -94 -42 -197v-18v-18 q0 -103 42 -198q46 -103 124 -181t180 -123q95 -41 197 -41h18q11 -1 22 -1q28 0 55 4q38 5 75 16v22q-37 -10 -75 -16q-28 -5 -58 -5q-9 0 -19 1h-18q-99 0 -190 40q-99 44 -173.5 118.5t-119.5 174.5q-40 89 -40 185q0 11 1 22v18q0 99 40 191q44 99 118.5 173.5 t174.5 117.5q95 41 197 41h10h13q71 0 136 -20q72 -23 138 -64l-4 -16q-61 41 -133 64q-66 20 -137 20h-13h-9q-99 0 -192 -40q-96 -42 -168.5 -115t-114.5 -169q-40 -92 -40 -191v-10v-9q0 -99 40 -192q42 -96 114.5 -168.5t168.5 -115.5q89 -39 183 -39h18q10 -1 19 -1 q30 0 58 5q38 6 75 17v22q-68 -22 -136 -22h-16h-18q-90 0 -174 36q-92 41 -162 111t-111 162q-39 88 -39 185v9v9q0 95 39 184q41 92 111 161.5t162 110.5q88 39 183 39h9h12q70 0 135 -21q70 -22 130 -63l-4 -16q-59 41 -129 63q-64 21 -132 21h-12h-10q-92 0 -177 -37 q-89 -39 -156.5 -106.5t-106.5 -156.5q-37 -85 -37 -178v-10v-10q0 -92 37 -177q39 -89 106.5 -156.5t156.5 -106.5q85 -37 177 -37h10h18q31 0 60 5q37 7 74 18v22q-37 -12 -74 -19q-29 -6 -61 -6h-17h-9q-89 0 -170 36q-85 38 -149.5 102.5t-102.5 149.5q-36 81 -36 170v9 v9q0 89 36 170q38 86 102.5 150.5t149.5 101.5q81 36 170 36h9h12q66 0 127 -20q68 -23 127 -64l-6 -16q-57 41 -123 64q-60 20 -125 20h-12h-9q-85 0 -163 -34q-82 -36 -144.5 -99.5t-98.5 -144.5q-33 -74 -33 -155v-18v-18q0 -80 33 -155q36 -83 98.5 -145.5t144.5 -98.5 q78 -33 162 -33h10h18q31 0 60 5q37 7 74 21v21q-37 -14 -74 -22q-29 -5 -61 -5h-17h-9q-81 0 -156 33q-78 35 -137.5 94.5t-94.5 137.5q-33 75 -33 156v9v9q0 81 33 156q35 79 94.5 138.5t137.5 94.5q73 32 151 32h14h11q64 0 124 -21q66 -22 119 -62l-6 -17 q-53 41 -115 63q-54 20 -112 20q-10 0 -21 -1h-9q-77 0 -148 -31q-76 -32 -133.5 -89.5t-90.5 -133.5q-30 -72 -30 -149v-9v-10q0 -78 30 -149q33 -76 90.5 -133.5t133.5 -90.5q71 -30 148 -30h9q78 0 152 28v21q-35 -14 -73 -23q-31 -6 -63 -6h-16h-9q-73 0 -140 30 q-72 32 -127.5 86t-86.5 126q-30 68 -30 142v9v9q0 73 30 141q31 72 86.5 127t127.5 87q67 30 140 30h9h11q62 0 118 -21q62 -22 113 -63l-4 -19q-51 41 -111 64q-52 21 -108 21q-9 0 -19 -1h-10q-70 0 -135 -28q-68 -29 -120 -81.5t-82 -120.5q-28 -65 -28 -136v-9v-9 q0 -71 28 -136q30 -68 82 -120t120 -82q65 -29 136 -29h9q84 0 152 32v172h-205v21h479v-10v-496h-2h-16v485h-19v-485h-18v485h-19v-485h-16v485h-18v-485h-2h-17v485h-18v-485h-2h-17v485h-18v-485h-2h-16v485h-19v-485h-2h-16v485h-19v-485h-18v20q-70 -16 -137 -16h-15 h-19q-121 0 -232 48q-119 52 -209.5 143.5t-143.5 210.5q-49 112 -49 233v18zM682 522v21h479v-21h-479zM682 559v21h479v-21h-479zM682 596v20h479v-20h-479zM682 633v18h479v-18h-479zM682 670v18h479v-18h-479zM682 705v20h479v-20h-479zM682 741v21h479v-21h-479z" />
<glyph unicode="H" horiz-adv-x="1204" d="M84 0v553h760v16h-760v21h760v16h-760v21h760v16h-760v19h760v18h-760v18h760v19h-760v18h760v19h-760v18h760v16h-760v523h16v-502h19v502h18v-502h19v502h18v-502h19v502h18v-502h18v502h17h2v-502h18v502h17h2v-502h18v502h16h3v-502h18v502h18v-502h486v502h20v-1311 h-20v532h-486v-532h-18v532h-18v-532h-3h-16v532h-18v-532h-2h-17v532h-18v-532h-2h-17v532h-18v-532h-18v532h-19v-532h-18v532h-19v-532h-18v532h-19v-532h-16zM881 0v1311h20v-1311h-20zM918 0v1311h20v-1311h-20zM954 0v1311h19v-1311h-19zM991 0v1311h19v-1311h-19z M1028 0v1311h19v-1311h-19zM1065 0v1311h18v-1311h-18zM1100 0v1311h20v-1311h-20z" />
<glyph unicode="I" horiz-adv-x="417" d="M70 0v1311h20v-1311h-20zM106 0v1311h21v-1311h-21zM143 0v1311h21v-1311h-21zM180 0v1311h21v-1311h-21zM217 0v1311h21v-1311h-21zM254 0v1311h20v-1311h-20zM291 0v1311h20v-1311h-20zM328 0v1311h20v-1311h-20z" />
<glyph unicode="J" horiz-adv-x="808" d="M68 0v20h200q53 0 117 8.5t127 39.5q63 29 113.5 86t72.5 122q10 31 16 68q5 28 5 53v15v98v801h20v-801v-98q1 -8 1 -16q0 -25 -5 -54q-6 -39 -18 -72q-23 -72 -77 -132t-120 -89q-66 -33 -131 -41t-121 -8h-200zM68 37v20q24 1 49 1t50 -1q33 -1 68 -1h35 q54 1 109 10.5t117 33.5q57 27 102 78t64 111q12 33 16 62.5t4 57t-1 53t1 48.5v801h20v-801v-98q0 -29 -5 -65t-15 -64q-23 -66 -70 -119t-108 -82q-66 -27 -123 -36t-111 -10h-27q-40 0 -77 2q-21 1 -42 1zM68 74v20q24 1 49 1t50 -1q33 -1 67 -1h34q51 1 104.5 9.5 t106.5 32.5q51 23 90 68t58 98q17 48 17 95v14q-2 32 -2 61q0 20 1 39v801h21v-801q-1 -19 -1 -39q0 -30 2 -63v-12q0 -49 -20 -101q-18 -59 -60 -106.5t-98 -71.5q-57 -25 -111 -33t-106 -10q-27 -1 -52.5 -1t-50.5 1t-50 1t-49 -1zM68 113v20q24 1 49 1t50 -1q33 -1 67 -1 h33q50 1 99.5 8t96.5 28q49 20 79.5 59t46 86t18.5 99q1 22 1 43q0 28 -2 55v801h21v-801q-1 -24 -1 -48.5t1 -51.5v-10q0 -47 -17 -95q-16 -49 -53 -91t-86 -64q-49 -23 -100.5 -30t-102.5 -8h-34q-34 0 -67 1q-25 1 -50 1t-49 -1zM68 150v20q24 1 49 1t51 -1q34 -1 67 -1 h33q49 1 94.5 8t83.5 26q86 39 109 121q17 59 17 129q0 28 -3 57v801h21v-801q2 -28 2 -56q0 -22 -1 -44q-3 -50 -17.5 -93t-43 -77.5t-75.5 -55.5q-43 -20 -90.5 -27t-96.5 -9h-37q-31 0 -63 2q-28 1 -56 1q-22 0 -44 -1zM68 186v21q24 1 49 1t51 -1q34 -1 66 -1h32 q47 1 89 7t75 23q72 37 90 100q14 46 14 117q0 27 -2 57v801h19v-801q2 -31 2 -58q0 -71 -15 -124q-20 -72 -100 -111q-37 -18 -80 -24.5t-91 -6.5t-99 1h-34q-33 0 -66 -1zM68 225v19q34 1 68 1h34q51 -1 97 -1t84 5t63 19q51 25 71 80q4 16 7.5 28.5t1.5 35.5v98v801h20 v-801q1 -38 1 -69v-29q-1 -41 -11 -71t-29.5 -51.5t-52.5 -39.5q-29 -14 -69 -19.5t-86 -6.5h-31q-32 0 -66 1q-26 1 -51 1zM68 262v21h200q86 0 129 20q23 10 33 22.5t21 34.5q4 14 5 22.5t1 29.5v98v801h20v-801v-98q0 -20 -2 -30.5t-6 -27.5q-18 -49 -63 -69 q-23 -12 -59 -17.5t-81 -6.5q-22 -1 -46 -1t-50 1q-51 1 -102 1z" />
<glyph unicode="K" horiz-adv-x="1191" d="M80 -2v1313h18v-1313h-18zM117 -2v1313h18v-1313h-18zM154 -2v1313h18v-1313h-18zM190 -2v1313h19v-1313h-19zM227 -2v1313h19v-1313h-19zM262 -2v1313h21v-1313h-21zM299 -2v1313h20v-1313h-20zM336 -2v1313h20v-623l426 621h23h2l-451 -658v-30l473 688h21h2l-496 -721 v-33l516 754h21h2l-539 -787v-33l562 820h20h2l-584 -852v-33l607 885h20h2l-629 -918v-31l652 949h20h2l-674 -981v-33l695 1014h20h2l-717 -1047v-33l740 1080h20h2l-379 -555l394 -754h-3h-18l-385 737l-12 -16l377 -721h-2h-19l-369 702l-10 -16l359 -686h-2h-19 l-350 668l-12 -17l342 -651h-2h-21l-332 635l-10 -19l322 -616h-2h-19l-313 600l-12 -16l305 -584h-2h-19l-297 565l-10 -16l287 -549h-2h-19l-278 530l-13 -16l271 -514h-2h-21l-260 496l-205 -299v-199h-20z" />
<glyph unicode="L" d="M80 0v1311h20v-1311h-20zM117 0v1311h20v-1311h-20zM154 0v1311h20v-1311h-20zM190 0v1311h19v-1311h-19zM227 0v1311h19v-1311h-19zM264 0v1311h19v-1311h-19zM301 0v1311h18v-1311h-18zM336 0v1311h20v-1035h559v-2v-16h-559v-18h559v-19h-559v-18h559v-19h-559v-18 h559v-19h-559v-18h559v-16h-559v-19h559v-2v-16h-559v-19h559v-2v-16h-559v-19h559v-2v-18h-559h-20z" />
<glyph unicode="M" horiz-adv-x="1589" d="M80 0l55 1311h19l-56 -1311h-18zM117 0l55 1311h18l-55 -1311h-18zM154 0l55 1311h18l-55 -1311h-18zM190 0l56 1311h18l-55 -1311h-19zM227 0l56 1311h16l-55 -1311h-17zM264 0l55 1303l-2 8h17l342 -1311h-17l-260 997l-43 -997h-18l45 1059l-16 65l-50 -1124h-16 l49 1180l-16 67l-53 -1247h-17zM354 1311h19l342 -1311h-19zM393 1311h19l340 -1311h-17zM432 1311h17l342 -1311h-17zM469 1311h18l342 -1311h-18zM508 1311h16l342 -1311h-16zM545 1311h18l342 -1311h-18zM584 1311h18l201 -768l201 768h16l-209 -803l10 -39l219 842h19 l-228 -875l11 -39l237 914h19l-248 -949l10 -38l258 987h17l-267 -1020l11 -41l276 1061h19l-287 -1094l10 -39l297 1133h16l-303 -1168l11 -39l313 1207h18l-323 -1239l10 -39l334 1278h18h17l55 -1311h-19l-53 1307l-18 -66l53 -1241h-18l-50 1186l-16 -66l47 -1120h-18 l-43 1065l-19 -68l43 -997h-18l-39 942l-246 -942h-20zM1325 1311h16l56 -1311h-19zM1362 1311h16l56 -1311h-19zM1399 1311h16l55 -1311h-18zM1436 1311h18l53 -1311h-18z" />
<glyph unicode="N" horiz-adv-x="1253" d="M82 0v1311h20v-1311h-20zM119 0v1311h20v-1311h-20zM156 0v1311h20v-1311h-20zM193 0v1311h22l610 -1311h-2h-20l-443 952v-952h-20v995l-16 35v-1030h-21v1073l-16 37v-1110h-21v1153l-16 35v-1188h-21v1231l-16 37v-1268h-20zM236 1311h18l612 -1311h-20zM274 1311h21 l600 -1284v43l-580 1241h21l559 -1198v43l-539 1155h21l518 -1110v43l-498 1067h21l477 -1024v43l-457 981h19l438 -936v43l-418 893h21l397 -850v850h18v-1311h-28zM930 0v1311h20v-1311h-20zM967 0v1311h20v-1311h-20zM1004 0v1311h20v-1311h-20zM1040 0v1311h21v-1311 h-21zM1077 0v1311h21v-1311h-21zM1114 0v1311h21v-1311h-21zM1151 0v1311h20v-1311h-20z" />
<glyph unicode="O" horiz-adv-x="1280" d="M35 655v20q0 109 39 216q43 117 124 211t194.5 151.5t248.5 57.5t247.5 -57.5t193.5 -151.5t124 -211q39 -107 39 -216v-20v-20q0 -107 -39 -215q-43 -118 -124 -210.5t-193.5 -151t-247.5 -58.5t-248.5 58.5t-194.5 151.5t-124 211q-39 108 -39 214v20zM55 655v-20 q0 -105 38 -209q42 -114 120 -204.5t187.5 -146t240.5 -55.5t239.5 55.5t186.5 146.5t120 205q40 109 40 218v10v10q0 111 -40 219q-42 114 -120 205t-186.5 147t-239.5 56t-240.5 -56t-187.5 -148q-78 -90 -120 -204q-38 -104 -38 -209v-20zM72 655v20q0 103 37 203 q41 110 116.5 199.5t182 144t233.5 54.5q125 0 231.5 -54.5t181.5 -143.5q76 -90 117 -200q39 -105 39 -212v-10.5v-11.5q0 -108 -39 -212q-41 -110 -116.5 -198.5t-182 -142.5t-231.5 -54q-127 0 -233.5 54t-182 142.5t-116.5 198.5q-37 101 -37 203v20zM90 655v-20 q0 -99 36 -196q40 -107 113.5 -193t176 -138.5t225.5 -52.5q121 0 223.5 52.5t176 138.5t113.5 194q36 98 36 195v20v20q0 99 -36 197q-40 108 -113.5 193.5t-176 137.5t-223.5 52q-123 0 -225.5 -52t-175.5 -138q-74 -85 -114 -193q-36 -98 -36 -197v-20zM106 655v20 q0 96 35 191q39 105 111 188t171 134t218 51q117 0 216 -51t171 -134q72 -84 110 -188q36 -99 36 -200v-10.5v-11.5q0 -100 -36 -200q-38 -106 -110 -189t-171 -133t-216 -50q-119 0 -218 50t-171 133t-111 189q-35 96 -35 191v20zM125 655v-19q0 -94 35 -186 q39 -102 107.5 -182t164.5 -129q92 -47 200 -47h8.5h9.5q108 0 199 47q95 49 164.5 129t106.5 182q35 96 35 194v11v11q0 99 -35 195q-37 102 -106.5 181.5t-164.5 129t-208 49.5t-209 -49.5t-164 -129.5q-69 -78 -108 -180q-35 -92 -35 -187v-20zM141 655v10q0 95 35 189 q37 100 103.5 178t159.5 125t202 47t201 -47t159.5 -125t103.5 -177q34 -94 34 -189v-11v-11q0 -96 -34 -188q-36 -98 -103 -176q-68 -78 -160 -126q-87 -46 -188 -45h-13h-9q-104 0 -193 46q-93 48 -159.5 125.5t-103.5 175.5q-35 93 -35 189v10zM162 655v-20 q0 -88 32 -172q36 -94 100 -170t153.5 -121t193.5 -45t192.5 45t152.5 121q66 76 100 170q33 89 32 181v11v11q0 92 -32 182q-34 96 -99 171t-153 121q-85 44 -184 44h-8.5h-9.5q-98 0 -184 -44q-90 -46 -154 -121t-100 -170q-32 -85 -32 -174v-20zM178 655v19q0 84 31 168 q35 94 97.5 166.5t148.5 116.5q82 42 177 42h8.5h9.5q95 0 176 -42q85 -44 147.5 -116.5t96.5 -165.5q32 -88 32 -177v-11v-11q0 -90 -32 -177q-34 -92 -96.5 -164t-147.5 -116t-185 -44t-186 44t-148.5 116t-97.5 164q-31 83 -31 168v20zM197 655v-10q-1 -87 31 -171 q34 -89 93.5 -158.5t141.5 -111.5q78 -40 169 -40h8.5h9.5q89 0 167 40q82 42 142.5 111.5t92.5 158.5q31 84 31 170v11v11q-1 86 -31 170q-32 90 -92.5 159.5t-142.5 112.5q-78 41 -168 41h-8h-9q-91 0 -169 -41q-82 -43 -141.5 -112.5t-93.5 -158.5q-32 -84 -31 -172v-10z M213 655v11q-1 84 29 166q32 86 90.5 153.5t137.5 108.5q75 39 162 39h8.5h8.5q85 0 161 -39q79 -41 137.5 -108.5t90.5 -153.5q30 -81 29 -166v-11v-11q1 -84 -29 -164q-32 -85 -90.5 -152.5t-137.5 -108.5q-75 -39 -161 -39h-8h-9q-87 0 -162 39q-79 41 -137.5 108.5 t-90.5 152.5q-30 80 -29 164v11zM233 655v-10q0 -81 29 -159q31 -83 86 -147.5t131 -102.5q72 -37 154 -37h8h8q81 1 153 37q75 38 130 102.5t86 147.5q29 78 29 159v10v10q0 81 -29 159q-31 83 -86 147.5t-130 103.5q-71 37 -153 37h-8h-8q-81 0 -154 -37 q-76 -39 -131 -103.5t-86 -147.5q-29 -78 -29 -159v-10zM250 655v11q0 78 28 153q30 80 83 142.5t125 99.5q69 35 147 35h8h8q77 0 145 -35q72 -37 126 -99q52 -63 82 -143q28 -75 28 -153v-11v-11q0 -78 -28 -152q-30 -80 -83 -141.5t-125 -99.5q-68 -36 -145 -36h-8h-8 q-77 0 -147 36q-72 38 -126 99q-52 62 -82 142q-28 74 -28 152v11zM268 655v-10q0 -75 27 -147q29 -76 80 -135.5t119 -95.5q65 -34 139 -34h8h8q73 0 137 34q68 36 119 95.5t80 135.5q27 72 27 147v10v10q0 75 -27 147q-29 77 -80 136.5t-119 95.5q-65 34 -137 33h-8h-8 q-73 1 -139 -33q-68 -36 -119 -95.5t-80 -136.5q-27 -72 -27 -147v-10zM285 655v11q-1 72 25 141q28 74 77 131t115 91q62 32 131 32h8h8q69 0 131 -32q64 -34 113 -91t77 -131q26 -69 25 -141v-11v-11q1 -72 -25 -140q-28 -74 -77 -132q-49 -56 -113 -90q-61 -32 -131 -32 h-8h-8q-69 0 -131 32q-66 34 -115 91t-77 131q-26 69 -25 141v10zM305 655v-11q1 -70 25 -136q26 -70 72.5 -123t107.5 -85q57 -30 123 -30h8h8q65 0 123 30q62 32 108 85t72 124q25 66 25 135v11v11q-1 70 -25 136q-26 70 -72 124t-108 86q-59 31 -123 30h-8h-8 q-65 0 -123 -30q-61 -32 -107.5 -86t-72.5 -124q-25 -66 -25 -136v-11z" />
<glyph unicode="P" horiz-adv-x="1146" d="M82 -2v481h592h9q71 0 137 31q70 33 121.5 89t82.5 131q29 70 29 147v10v10q0 77 -29 145q-31 74 -83 130q-51 58 -121 90q-65 31 -137 30h-9h-316v-18h316h8q66 0 130 -30q66 -32 116 -85q48 -53 78 -123q28 -66 28 -139v-10v-10q0 -73 -28 -139q-30 -72 -78 -126 q-49 -52 -116 -84q-63 -30 -130 -30h-8h-592v20h600q68 0 129 31t107 81q48 50 74 116q25 62 24 131v10v10q0 69 -26 131q-28 66 -75 116t-109.5 79.5t-129.5 29.5h-318v-20h316h9q61 -1 116 -27q59 -28 103 -76q44 -46 70 -110q25 -59 25 -123v-10v-10q-1 -65 -25 -125 q-26 -64 -71 -112t-105 -76q-55 -26 -113 -25h-9l-592 -2v20h592h9q57 1 109 25q56 26 98 72t66 106q23 56 23 117v10v10q-1 61 -23 115q-24 59 -65 104t-96.5 71.5t-116.5 26.5h-320v-20h316h9q53 0 101 -22q52 -24 92 -68q39 -44 63 -100q22 -52 22 -108v-9v-9 q0 -56 -22 -110q-24 -58 -63.5 -100.5t-91.5 -67.5q-47 -22 -98 -22h-12h-592v20h592h8q49 0 94 22q49 24 87 64q37 39 59 91q20 48 20 102v10v10q0 51 -20 99q-22 52 -58.5 92t-85.5 63t-102 23h-318v-19h316q49 0 95 -21.5t81 -58.5q36 -37 56 -86q19 -45 18 -93v-9v-10 q0 -51 -18 -95q-20 -50 -56 -88q-35 -36 -81 -58q-42 -20 -87 -20h-8l-592 2v19h596q45 0 87 20.5t73 54.5q32 34 50 80q17 42 17 85v10v10q-1 44 -17 84q-18 45 -49.5 79t-73.5 54.5t-87 20.5h-320v-19l316 -2h8q38 0 74 -16q39 -18 68.5 -50t47.5 -74q16 -38 15 -78v-9 v-10q1 -42 -15 -79q-18 -42 -47.5 -74t-68.5 -50q-35 -17 -74 -17h-8l-592 -2v21h592q39 0 74.5 16.5t62.5 46t42 67.5t15 81q0 41 -15 77.5t-41 66.5t-60.5 47.5t-71.5 17.5h-322v-21h316q35 0 67.5 -15.5t57 -41t38 -60t13.5 -71.5q0 -39 -13.5 -74t-38 -60.5t-57 -41 t-67.5 -15.5h-592v21h598q31 0 58.5 14t48 37t32.5 53.5t12 63.5v2q0 33 -12 63.5t-33.5 53t-49 37t-58.5 14.5h-320v-19h316q29 0 54.5 -11t45 -32.5t29.5 -48t10 -57.5t-11 -58.5t-30.5 -49t-45.5 -33t-52 -11.5h-592v578h20v-557h17v557h20v-557h17v557h20v-557h17v557 h20v-557h16v557h19v-557h18v557h19v-557h18v557h19v-557h18v557h334h9q75 0 143 -33q72 -35 128 -93.5t88 -136.5q30 -73 29 -153v-10v-10q1 -80 -29 -155q-32 -79 -88 -138q-56 -60 -128 -94q-68 -32 -143 -31h-9h-316v-461h-18v461h-18v-461h-19v461h-18v-461h-19v461h-18 v-461h-19v461h-16v-461h-20v461h-17v-461h-20v461h-17v-461h-20v461h-17v-461h-20zM358 756h316q25 0 46 10t38.5 28.5t27 42t9.5 50.5v5q0 48 -35 86t-81 38h-5h-316v-260z" />
<glyph unicode="Q" horiz-adv-x="1376" d="M82 655v20q0 109 39 216q43 117 124 211t194.5 151.5t248.5 57.5t249 -57.5t194.5 -151.5t123.5 -211q39 -107 39 -216v-20v-18q0 -63 -12 -125q-14 -70 -45 -136.5t-75 -127t-99 -107.5q57 -29 114.5 -52t112.5 -40l-4 -18v2q-59 16 -119.5 40.5t-119.5 55.5 q-4 -4 -7.5 -6t-7.5 -6q61 -33 124 -58.5t126 -42.5l-4 -18q-66 18 -131.5 45t-130.5 61q-12 -8 -17 -12q66 -35 134.5 -63.5t140.5 -46.5l-4 -19q-76 20 -147.5 51t-141.5 68q-12 -8 -18 -10q72 -41 147.5 -72t155.5 -53l-6 -19q-84 23 -162 57.5t-154 75.5q-4 -4 -9 -5 t-11 -5q78 -43 160.5 -80t170.5 -59l-4 -18q-94 27 -179 64.5t-169 84.5q-8 -4 -20 -8q86 -49 176 -89t188 -69l-4 -18q-106 29 -199.5 71.5t-183.5 96.5q-16 -4 -22 -7q92 -55 190 -101t211 -77l-4 -18q-121 35 -222.5 83t-199.5 107q-10 -2 -27 -6q102 -61 209 -113.5 t236 -87.5v-2l-6 -16q-135 37 -248 93.5t-221 121.5q-16 -2 -33.5 -3t-34.5 -1q-135 0 -248.5 57.5t-194.5 151.5t-124 211q-39 107 -39 215v20zM102 655v-20q0 -105 38 -209q42 -115 121 -205t187.5 -146.5t239.5 -56.5t239.5 56.5t187.5 146.5t121 205q38 105 38 209v20 v20q0 105 -38 209q-42 115 -121 205.5t-187.5 146.5t-239.5 56t-239.5 -56t-187.5 -146.5t-121 -205.5q-38 -104 -38 -209v-20zM119 655v20q0 103 37 203q41 111 116.5 200t182 143.5t233.5 54.5t233.5 -54.5t182.5 -143.5t116 -200q37 -100 37 -203v-20v-20 q0 -103 -37 -203q-40 -110 -116 -199.5t-182.5 -143.5t-233.5 -54t-233.5 54t-182 143.5t-116.5 199.5q-37 101 -37 203v20zM137 655v-20q0 -99 36 -196q40 -107 113.5 -193t176 -138.5t225.5 -52.5t225.5 52.5t176 138.5t112.5 194q37 102 37 204v11v11q0 103 -37 206 q-39 107 -112.5 193t-176 138t-225.5 52t-225.5 -52t-176 -138t-113.5 -193q-36 -98 -36 -197v-20zM154 655v19q0 97 36 193q39 106 111 189t171 134q95 49 207 49h9h9q114 0 209 -49q100 -51 171.5 -134t109.5 -188q36 -101 36 -202v-11v-11q0 -100 -36 -200 q-38 -106 -109.5 -189t-171 -133t-218.5 -50q-117 0 -216 50t-171 133t-111 189q-36 95 -36 192v19zM174 655v-20q0 -94 34 -185q38 -102 107.5 -182t164.5 -129t208 -49t209 49t164.5 129t106.5 182q36 96 36 195v10v10q0 99 -36 196q-38 102 -106.5 181.5t-164.5 129 t-209 49.5t-208 -49.5t-164.5 -129t-107.5 -180.5q-34 -92 -34 -187v-20zM190 655v20q0 90 33 179q37 100 103.5 178t159.5 125t202 47t202 -47t159.5 -125t103.5 -177q35 -94 35 -190v-10v-10q0 -95 -35 -189q-37 -98 -103.5 -176.5t-159.5 -126t-202 -47.5t-202 47.5 t-159.5 126t-103.5 176.5q-33 89 -33 180v19zM209 655v-20q0 -88 31 -173q36 -95 101 -170t154 -121q85 -44 184 -44h9h9q99 0 185 44q89 46 153.5 121t98.5 170q33 90 33 182v11v11q0 92 -33 182q-34 96 -98.5 172t-153.5 121t-194 45q-104 0 -193 -45t-154 -121t-101 -171 q-31 -85 -31 -174v-20zM225 655v10q0 89 33 177q35 94 97.5 166.5t147.5 116.5t185 44t186.5 -44t148.5 -116.5t96 -165.5q32 -88 32 -177v-11v-11q0 -90 -32 -177q-34 -92 -96 -165t-149 -117q-82 -42 -177 -42h-9h-9q-95 0 -176 42q-85 44 -147.5 117t-97.5 165 q-33 87 -33 178v10zM246 655v-20q0 -81 30 -161q33 -89 92.5 -158.5t141.5 -112.5q78 -41 169 -41h9h8q90 0 169 41q83 43 142.5 112.5t93.5 158.5q32 84 32 171v10v10q0 87 -32 171q-34 90 -93.5 159.5t-142.5 112.5q-79 41 -169 41h-8h-9q-91 0 -169 -41 q-82 -43 -141.5 -112.5t-92.5 -158.5q-30 -80 -30 -162v-20zM262 655v19q0 80 29 158q33 86 90 153.5t136 108.5q75 39 162 39h9h9q87 0 162 -39q79 -41 137.5 -108.5t89.5 -153.5q30 -82 30 -166v-11v-11q0 -84 -30 -165q-31 -86 -89.5 -153.5t-137.5 -108.5 q-75 -39 -162 -39h-9h-9q-87 0 -162 39q-79 41 -136 108.5t-90 153.5q-29 77 -29 157v19zM281 655v-11q0 -80 29 -158q30 -83 85.5 -147.5t130.5 -102.5q72 -37 154 -37h8h8q82 0 154 37q76 38 131 102.5t86 147.5q29 78 29 159v10v10q0 81 -29 160q-31 84 -86 148.5 t-131 103.5q-72 37 -154 37h-8h-8q-82 0 -154 -37q-75 -39 -130.5 -103.5t-85.5 -148.5q-29 -79 -29 -159v-11zM297 655v11q0 78 27 153q30 80 83.5 142.5t126.5 100.5q68 36 146 36h8h8q78 0 146 -36q73 -38 126.5 -100.5t83.5 -142.5q27 -75 27 -153v-11v-11 q0 -78 -27 -152q-30 -80 -83.5 -141.5t-126.5 -99.5q-68 -36 -146 -36h-8h-8q-78 0 -146 36q-73 38 -126.5 99.5t-83.5 141.5q-27 74 -27 152v11zM315 655v-10q0 -75 28 -147q30 -76 80 -135.5t119 -95.5q64 -34 138 -34h8h8q74 0 138 34q69 36 119.5 95.5t80.5 135.5 q27 72 27 147v10v10q0 75 -27 147q-30 77 -80.5 136.5t-119.5 95.5q-64 33 -138 33h-8h-8q-74 0 -138 -33q-69 -36 -119 -95.5t-80 -136.5q-28 -72 -28 -147v-10zM332 655v11q0 72 26 141q27 74 76 131t114 91q62 32 132 32h8h8q70 0 132 -32q65 -34 114 -91t77 -131 q25 -67 25 -137v-15v-11q0 -72 -26 -140q-27 -74 -76 -131.5t-114 -90.5q-62 -32 -132 -32h-8h-8q-70 0 -132 32q-65 33 -114 90.5t-76 131.5q-26 69 -26 141v10zM352 655v-11q0 -70 24 -136q27 -70 73.5 -123t108.5 -86q58 -31 122 -31h8h8q64 0 122 31q63 33 109 86 t73 124q24 66 24 135v11v11q0 70 -24 136q-27 70 -73 123.5t-109 86.5q-58 30 -122 30h-8h-8q-64 0 -122 -30q-62 -33 -108.5 -86.5t-73.5 -123.5q-24 -66 -24 -136v-11z" />
<glyph unicode="R" horiz-adv-x="1140" d="M82 0v479h590h9q71 0 137 31q70 33 121.5 89t82.5 130q29 70 29 146v10v10q0 75 -29 145q-31 74 -83 130q-51 58 -121 90q-65 31 -137 30h-9h-314v-20h314h8q66 0 130 -30q66 -32 116 -85q48 -53 78 -123q28 -66 28 -137v-10v-10q0 -73 -28 -139q-30 -70 -78 -124 q-49 -52 -116 -84q-63 -30 -130 -30h-8h-590v20h598q68 0 128 30t106 81t74 117q26 61 26 129v10v10q0 69 -26 131q-28 66 -75 116t-109 80q-59 28 -122 27h-8l-316 2v-20h314h9q61 -1 116 -27q59 -28 103 -76q44 -46 70 -110q25 -59 25 -123v-10v-10q-1 -65 -25 -123 q-26 -64 -71 -112t-105 -76q-56 -27 -114 -27h-8h-590v20h590h9q57 1 109 25q56 26 98 71t66 105q23 56 23 117v10v9q-1 58 -23 114q-24 60 -65 104.5t-96.5 71t-116.5 26.5h-318v-18h314q57 0 109.5 -24.5t92.5 -66.5q39 -43 63 -99q21 -50 21 -104v-13v-10q0 -55 -22 -107 q-24 -56 -63 -99.5t-91 -68.5q-47 -22 -98 -22h-12l-590 -3v21h590h8q49 0 94 22q49 24 87 64q37 39 59 92q20 48 20 101v10v10q0 51 -20 99q-22 52 -58.5 92t-85.5 62.5t-102 22.5h-316v-18l314 -2h8q45 1 87 -19q46 -22 81 -59q36 -37 56 -86q19 -45 18 -93v-9v-9 q0 -48 -18 -94q-20 -50 -56 -88q-35 -36 -81 -58q-42 -20 -87 -20h-8h-590v21h590q47 0 90 20.5t74.5 54t49 79t17.5 94.5t-18.5 94t-50 79t-73.5 54.5t-87 20.5h-316v-21h314q43 0 82 -18.5t68.5 -49t46 -72.5t16.5 -87q0 -47 -16.5 -88t-46 -73t-68.5 -50.5t-82 -18.5 h-590v21h590h8q34 0 66 14q36 16 63 46t42 68t15 81q0 41 -15 77.5t-41 65.5t-60.5 46.5t-71.5 17.5l-320 2v-21h314q35 0 67.5 -15.5t57 -41t38 -60t13.5 -71.5q0 -39 -13.5 -74t-38 -60.5t-57 -41t-67.5 -15.5h-590v23h596q31 0 58.5 14t49 37t32.5 52.5t11 62.5v2 q0 33 -12 63.5t-33.5 53t-49 37t-58.5 14.5h-318v-19h314q57 0 99 -45q40 -43 40 -99v-5q0 -31 -11.5 -57.5t-30.5 -48t-45 -33t-52 -11.5q-166 -2 -293 -2h-297v19v2v555h20v-555h17v555h20v-555h17v555h20v-555h17v555h20v-555h16v555h21v-555h16v555h19v-555h18v555h19 v-555h18v555h332h9q75 0 143 -32q72 -34 128 -92.5t88 -136.5q30 -73 29 -153v-10v-9q0 -98 -43 -184q-45 -90 -119 -149q82 -125 118 -263.5t40 -279.5h-18q-4 139 -40 273.5t-116 256.5q-4 -2 -12 -10q78 -119 111.5 -252t37.5 -268h-18q-4 133 -39 263t-109 247 q-8 -2 -16 -8q74 -115 108.5 -243t38.5 -259h-20q-4 129 -38 256t-106 238q-4 -2 -8 -4.5t-8 -4.5q72 -109 105.5 -232.5t37.5 -252.5h-20q-4 127 -38 250t-103 229q-4 -2 -8.5 -3t-8.5 -3q70 -104 103.5 -226t38.5 -247h-21q-2 123 -37 244t-104 223q-4 0 -9.5 -1t-9.5 -1 q70 -100 105 -221t39 -244h-21q-2 123 -39 242.5t-104 218.5q-6 0 -11.5 -1t-9.5 -1q70 -96 108 -216t40 -243h-21q-2 123 -41 245t-110 214h-2h-19q72 -92 113 -213t43 -246h-21q0 127 -44 250t-117 209h-269v-459h-18v459h-18v-459h-19v459h-18v-459h-19v459h-16v-459h-21 v459h-16v-459h-20v459h-17v-459h-20v459h-17v-459h-20v459h-17v-459h-20zM358 754h314q25 0 47 10t38.5 28.5t26 42t9.5 50.5v5q0 48 -35 86t-81 38h-5h-314v-260z" />
<glyph unicode="S" horiz-adv-x="1073" d="M78 915v10q0 75 28 142q30 72 83 127t123 87q65 30 136 30h9h436v-19h-436h-9q-68 0 -130 -28q-66 -30 -115 -83t-79 -121q-28 -64 -28 -136v-9v-9q0 -70 28 -136q30 -70 79 -122t115 -82q62 -28 130 -27h9h78h77q52 0 94 -42q39 -39 39 -91v-7q0 -29 -10 -54.5 t-28.5 -44.5t-43 -29.5t-51.5 -10.5h-530v19h530h5q44 0 77 34.5t33 80.5v5q2 47 -34 84t-81 37h-77h-78h-9q-70 0 -136 30q-70 32 -122 87q-54 55 -84 127q-29 68 -28 141v10zM82 4v19h530h9q67 -1 129 27q66 30 117 82t79 122q27 65 27 135v10v10q-1 71 -27 135 q-28 68 -78 120q-52 54 -118 84q-62 29 -129 28h-9h-77h-78q-27 0 -51.5 11.5t-43 31t-28.5 44t-10 52.5q0 27 10 52.5t28.5 45t43 31t51.5 11.5h436v-19h-436q-23 0 -44.5 -9t-37 -26.5t-24.5 -39t-9 -46.5v-5q0 -46 33 -80.5t77 -34.5h5h78h77h9q71 0 137 -30 q70 -32 122 -87t82 -127q29 -68 29 -142v-10v-10q-1 -75 -29 -143q-30 -72 -82 -126t-122 -86q-65 -30 -137 -30h-9h-530zM82 39v18l536 2q63 0 123 28t104 75q43 46 69 108q24 57 24 119v10v10q0 63 -24 119q-26 62 -70.5 109t-104 74.5t-125.5 27.5h-79h-78 q-35 0 -66 13.5t-53.5 38t-35.5 57.5t-13 67q0 35 13 68t35.5 57.5t53.5 38t66 13.5h436v-21h-442q-29 0 -55.5 -13.5t-46 -35t-31 -49t-11.5 -58.5t11.5 -59.5t32 -50t47 -34.5t55.5 -13h82h77h9q65 0 123 -28q62 -30 110 -79t76 -115q26 -61 26 -127v-10v-10 q0 -67 -26 -128q-28 -66 -76 -115q-48 -50 -110 -78q-58 -27 -123 -27h-9q-117 -2 -219 -2h-311zM82 76v18h530h9q53 0 103 22q54 24 94 66q40 44 64 100q22 52 21 107v10v10q1 57 -21 107q-24 56 -64 96.5t-92 65t-110 24.5h-81h-78q-41 0 -78 17.5t-64.5 46.5t-44 67.5 t-16.5 81.5t16.5 82t44 68t64.5 46q33 15 69 15h9h155q66 0 141.5 1t139.5 1v-18h-436q-37 0 -71 -15.5t-60 -42.5q-24 -28 -40 -63q-14 -31 -14 -65v-9v-9q0 -34 12 -64q14 -34 39 -61t59 -43.5t71 -16.5h82h77h9q55 -1 109 -25q58 -26 100 -70t67 -104q23 -55 23 -114v-9 v-10q0 -61 -23 -114q-25 -58 -68 -103q-43 -46 -99 -72q-52 -25 -109 -24h-9h-530zM82 113v18h530h9q45 -1 89 19q48 22 82.5 60t55 87t20.5 102t-20.5 101.5t-55 85.5t-80.5 58.5t-98 21.5h-79h-78q-47 0 -91 19.5t-77 54t-53 80.5q-18 42 -17 86v9v9q-1 44 17 86 q20 46 53 80t77 54q40 19 83 19h8h436v-18h-440q-43 0 -83 -18.5t-70 -50.5t-47 -73.5t-17 -87.5q0 -47 17 -88t48 -73.5t71 -51t83 -18.5h80h77h9q49 0 95 -22q50 -24 88 -62.5t60 -90.5q21 -48 21 -101v-9v-9q-1 -52 -21 -100q-22 -52 -60 -92t-87 -64q-45 -22 -96 -21h-9 h-530zM82 150v18h534q43 0 83 18.5t70 51t47.5 73.5t17.5 88q0 45 -17.5 87t-47.5 74t-70 50.5t-83 18.5h-81h-78q-55 0 -104.5 22.5t-87.5 62.5q-39 40 -61 92q-21 48 -20 100v9v9q0 52 20 100q22 52 60 92q39 38 88 62q45 22 96 22h9h436v-18h-436h-9q-46 0 -90 -20 q-48 -22 -82 -58.5t-54.5 -85.5t-20.5 -103q0 -53 20.5 -102t55 -86t80.5 -58.5t98 -21.5h80h77h8q44 -1 84 -19q44 -20 76 -54q32 -33 52 -79q18 -42 18 -87v-9v-9q0 -44 -18 -86q-20 -46 -52 -81t-76.5 -54t-91.5 -19h-530zM82 186v19h530q37 0 71 15.5t60.5 42t41 62 t14.5 74.5q0 37 -14.5 72t-39 61.5t-58.5 43t-71 16.5h-81h-78q-61 0 -117.5 25.5t-99.5 70.5q-43 46 -68 104q-22 52 -22 109v14v9q0 58 22 114q24 60 67.5 104t99.5 70q52 25 109 25h9h436v-18h-436h-9q-54 0 -104 -23q-54 -25 -94 -67q-38 -42 -62 -97q-22 -51 -22 -107 v-10v-10q0 -57 22 -107q24 -56 63.5 -97.5t91.5 -66t112 -24.5h80h77h9q36 0 69 -15q37 -17 64.5 -46t44 -68t16.5 -82t-16.5 -81.5t-44 -68.5t-64.5 -46.5t-78 -16.5h-530zM82 223v19l536 2q29 0 54.5 12t46 33.5t32 50.5t11.5 59q0 31 -11.5 59.5t-32 50t-47 35 t-55.5 13.5h-81h-78h-9q-66 1 -124 27q-62 28 -110 78t-76 116q-26 61 -25 127v10v9q1 66 27 128q28 66 75 116q47 52 111 80q59 27 122 26h9h436v-19h-442q-66 0 -124.5 -27.5t-102.5 -74.5t-70 -109q-24 -57 -23 -119v-10v-10q1 -63 25 -120q26 -62 70 -109t104 -75 q56 -26 116 -26h9h80h77q33 0 65 -14t54.5 -38.5t35.5 -56.5t13 -67t-13 -67.5t-35.5 -57t-54.5 -38t-65 -13.5h-530z" />
<glyph unicode="T" horiz-adv-x="1153" d="M82 1008v22h989v-22h-385v-1008h-20v1008h-15v-1008h-20v1008h-17v-1008h-18v1008h-16v-1008h-21v1008h-16v-1008h-19v1008h-16v-1008h-21v1008h-16v-1008h-18v1008h-17v-1008h-20v1008h-334zM82 1049v20h989v-20h-989zM82 1087v23h989v-23h-989zM82 1128v23h989v-23 h-989zM82 1169v21h989v-21h-989zM82 1208v23h989v-23h-989zM82 1249v21h989v-21h-989zM82 1288v23h989v-23h-989z" />
<glyph unicode="U" horiz-adv-x="1245" d="M80 573v738h20v-725v-19q0 -91 34 -183q38 -100 107.5 -181.5t167 -132t214.5 -50.5t215 50.5t167.5 131.5t106.5 181q35 95 35 192v11v725h20l-2 -738q0 -104 -39 -206.5t-110.5 -183.5t-172 -132t-220.5 -51q-121 0 -221.5 51t-172 132t-110.5 183.5t-39 206.5z M117 573v738h20v-725v-19q0 -87 32 -173q36 -96 100.5 -170t154.5 -120.5t199 -46.5t199.5 46.5t155 121t99.5 169.5q33 90 33 182v10v725h20l-2 -738q0 -98 -36.5 -193t-104 -172t-160.5 -124t-204 -47t-204 47t-161 124t-104.5 172t-36.5 193zM154 573v738h20v-725v-19 q0 -79 29 -159q33 -88 93 -158t144 -113t183 -43q98 0 182 43t145 113q60 70 92 158q31 83 31 168v10v725h21l-2 -738q0 -92 -35 -181t-97.5 -160.5t-148.5 -114.5t-188 -43t-188.5 43t-149 114.5t-97 160.5t-34.5 181zM190 573v738h19l2 -725v-11q-1 -79 27 -155 q30 -82 85.5 -146.5t132 -103.5t167.5 -39q90 0 166.5 39t132.5 104q56 64 86 146q29 77 28 156v10v725h21l-2 -738q0 -86 -32 -168.5t-90.5 -148.5t-137 -105.5t-172.5 -39.5q-92 0 -172 39.5t-137.5 105.5t-90.5 148.5t-33 168.5zM227 573v738h19l2 -725v-11 q0 -73 26 -143q28 -76 78.5 -135t120.5 -95q66 -34 142 -34h8h8q75 0 143 34q70 36 120 95t78 135q27 71 27 144v10v725h21v-738q0 -80 -31 -156.5t-84 -137t-125.5 -96.5t-156.5 -36t-156 36t-125 96.5t-84 137.5t-31 156zM264 573v738h19l2 -725v-10q-1 -68 23 -132 q26 -70 72 -123t108 -85q59 -31 127 -31h8h8q67 1 126 31q62 32 108 86q46 52 73 122q25 65 25 132v10v725h20v-738q0 -74 -28.5 -144.5t-77 -124.5t-113.5 -87t-141 -33q-74 0 -139.5 33t-115 87t-77 125t-27.5 144zM301 573v738h18l3 -725v-11q0 -61 22 -119 q24 -62 64 -110q41 -50 97 -78q52 -27 110 -26h8h8q59 0 111 26q56 28 98 76q40 50 64 112q22 58 22 119v11v725h20l-2 -738q0 -68 -25.5 -132t-69.5 -113t-102 -79q-54 -28 -116 -28h-8h-8q-61 0 -117 28q-58 30 -102 79t-69.5 113.5t-25.5 131.5zM338 573v738h18l2 -725 v-10q0 -54 20 -106q22 -56 58.5 -99t84.5 -69q43 -23 91 -23h11h8q49 -1 94 23q49 26 86 69t59 98q20 50 19 106v11v725h20l-2 -738q0 -61 -23.5 -119.5t-62.5 -102.5q-39 -43 -90 -69q-47 -24 -100 -24h-8h-8q-53 0 -101 24q-52 26 -90.5 69.5t-62 102t-23.5 119.5z" />
<glyph unicode="V" horiz-adv-x="1269" d="M45 1311h18l402 -1309h-21zM86 1311h16l402 -1309h-19zM125 1311h16l394 -1286l10 32l-381 1254h16l375 -1223l10 33l-364 1190h18l354 -1159l11 32l-344 1127h18l336 -1096l10 33l-325 1063h18l315 -1032l11 32l-306 1000h19l297 -969l297 969h18l-401 -1309h-10h-13z M569 2l402 1309h16l-401 -1309h-17zM608 2l402 1309h16l-401 -1309h-17zM647 2l400 1309h18l-401 -1309h-17zM686 2l399 1309h19l-402 -1309h-16zM725 2l399 1309h19l-402 -1309h-16zM764 2l399 1309h19l-402 -1309h-16zM801 2l401 1309h19l-402 -1309h-18z" />
<glyph unicode="W" horiz-adv-x="1705" d="M51 1311h17l270 -1311h-19zM88 1311h16l271 -1311h-17zM125 1311h18l271 -1311h-19zM164 1311h16l260 -1268l11 51l-250 1217h16l242 -1174l10 51l-231 1123h18l221 -1080l10 52l-213 1028h19l203 -985l10 49l-193 936h19l182 -889l172 889h19l-254 -1311h-11h-8zM471 0 l254 1311h16l-254 -1311h-16zM508 0l254 1311h16l-254 -1311h-16zM545 0l254 1311h18l-254 -1311h-18zM582 0l256 1311h16l-254 -1311h-18zM621 0l253 1311h17l-254 -1311h-16zM657 0l254 1311h17l-254 -1311h-17zM694 0l254 1311h13h6h12l254 -1311h-19l-249 1294l-11 -53 l240 -1241h-16l-232 1198l-10 -53l221 -1145h-16l-213 1102l-10 -53l202 -1049h-18l-195 1006l-8 -54l184 -952h-18l-176 907l-10 -51l165 -856h-16l-158 811l-10 -51l148 -760h-19l-137 711l-139 -711h-19zM999 1311h17l174 -895l184 895h19l-195 -942l10 -52l205 994h17 l-213 -1037l10 -49l223 1086h16l-231 -1129l10 -51l242 1180h18l-252 -1223l9 -51l264 1274h16l-270 -1311h-2h-8h-9zM1292 0l271 1311h16l-268 -1311h-19zM1329 0l270 1311h19l-270 -1311h-19zM1368 0l270 1311h17l-271 -1311h-16z" />
<glyph unicode="X" horiz-adv-x="1312" d="M63 0l420 668l-403 643h20l826 -1311h-21l-258 408l-256 -408h-20l268 424l-12 18l-279 -442h-20l288 459l-12 18l-301 -477h-18l309 494l-12 18l-322 -512h-20l333 528l-12 19l-344 -547h-20l354 563l-12 19l-367 -582h-18l374 598l-12 18l-387 -616h-20l399 631l-12 20 l-410 -651h-23zM123 1311h20l826 -1311h-21zM166 1311h20l826 -1311h-21zM211 1311h18l826 -1311h-21zM254 1311h18l826 -1311h-19zM297 1311h20l826 -1311h-21zM340 1311h20l826 -1311h-21zM383 1311h23l241 -385l242 385h22l-254 -402l13 -18l264 420h20l-274 -437l12 -18 l287 455h18l-295 -471l11 -19l309 490h20l-319 -506l12 -19l330 525h20l-340 -541l13 -18l352 559h18l-360 -576l10 -18l375 594h21l-386 -611l13 -18l395 629h21l-406 -645l420 -666h-23z" />
<glyph unicode="Y" horiz-adv-x="1202" d="M51 1311h19l428 -852v-459h-19v457zM92 1311h19l421 -842v-469h-16v465zM133 1311h19l417 -834v-477h-16v473zM174 1311h19l413 -828v-483h-16v481zM215 1311h18l410 -819v-492h-16v492zM256 1311h18l406 -809v-502h-16v500zM297 1311h18l402 -801v-510h-19v508z M338 1311h20l244 -488l244 488h20l-254 -508l11 -23l266 531h18l-274 -549l10 -21l287 570h18l-295 -590l11 -21l307 611h18l-315 -629l10 -23l328 652h18l-336 -670l11 -23l348 693h18l-356 -711l10 -22l369 733h18l-377 -752l10 -22l390 774h18l-399 -795v-516h-19v516z " />
<glyph unicode="Z" horiz-adv-x="1097" d="M78 1030v19h903v-19l-553 -749h588v-19h-936v10v9l551 749h-553zM78 1069v16v2h903v-2v-16h-903zM78 1106v16v2h903v-2v-16h-903zM78 1143v18h903v-18h-903zM78 1180v18v2h903v-2v-18h-903zM78 1219v16v2h903v-2v-16h-903zM78 1255v17v2h903v-2v-17h-903zM78 1292v17v2 h903v-2v-17h-903zM80 2v16v2h936v-2v-16h-936zM80 39v16v2h936v-2v-16h-936zM80 76v16v2h936v-2v-16h-936zM80 113v18h936v-18h-936zM80 150v18h936v-18h-936zM80 188v17v2h936v-2v-17h-936zM80 225v17v2h936v-2v-17h-936zM102 281h25l553 749h-25zM152 281h22l553 749h-25z M197 281h24l551 749h-22zM244 281h22l553 749h-22zM291 281h22l553 749h-24zM336 281h24l551 749h-22zM383 281h23l552 749h-22z" />
<glyph unicode="a" horiz-adv-x="1290" d="M59 0l82 311h717l-6 21h-705l5 16h696l-4 21h-688l4 16h678l-4 21h-668l4 16h659l-6 20h-647l4 17h639l-6 20h-629l6 19h619l-4 18h-610l4 19h600l-4 18h-590l196 758h19l-193 -740h21l192 740h19l-193 -740h21l192 740h17l-193 -740h21l194 740h17l-193 -740h20l193 740 h18l-192 -740h20l193 740h20l344 -1311h-18l-78 293h-440l-76 -293h-18l78 293h-21l-78 -293h-16l76 293h-21l-76 -293h-18l76 293h-21l-76 -293h-18l78 293h-21l-77 -293h-17l76 293h-21l-77 -293h-17l76 293h-20l-76 -293h-19l78 293h-22l-76 -293h-19zM418 571h22 l174 668l-10 41zM457 571h20l156 596l-10 39zM496 571h295l-150 562zM635 1311h18l344 -1311h-18zM674 1311h18l344 -1311h-18zM713 1311h16l346 -1311h-18zM750 1311h18l344 -1311h-16zM788 1311h19l344 -1311h-18zM827 1311h17l346 -1311h-19zM866 1311h17l344 -1311h-17z " />
<glyph unicode="b" horiz-adv-x="1163" d="M84 528h590h9q71 0 137 29q70 31 121.5 84t82.5 123q29 66 29 138v9v9q0 70 -29 136q-31 70 -83 124q-53 54 -121 84q-64 29 -135 28h-9h-314v-18h314h9q67 0 129 -28q66 -30 114 -80t78 -116q28 -62 28 -130v-9v-9q0 -69 -28 -131q-30 -66 -78.5 -116.5t-115.5 -80.5 q-63 -28 -129 -27h-9h-590v18l598 2q68 0 129 28t107 76q48 49 74 111q25 58 24 120v9v9q0 64 -26 122q-28 62 -75 110t-108.5 75.5t-128.5 27.5h-316v-18h314h9q57 -1 113 -25q60 -26 104 -71t70 -105q25 -55 25 -116v-9v-9q-1 -61 -25 -117q-26 -60 -70 -105 q-44 -46 -104 -72q-55 -25 -115 -24h-9h-590v20l590 -2h9q57 0 109 22q56 24 98 68q42 42 66 100q23 53 23 110v9v9q-1 56 -23 108q-24 56 -65 98.5t-96.5 67.5t-116.5 25h-316v-19h314q57 0 109.5 -23.5t91 -63.5t62.5 -92q22 -48 22 -101v-9v-9q0 -54 -22 -102 q-24 -52 -63.5 -92t-91.5 -64q-48 -22 -101 -21h-9l-590 -2v20h590h9q48 -1 93 19q49 22 87 60q37 38 59 87q20 45 20 95v9v9q0 48 -20 94q-22 50 -58.5 87.5t-84.5 59t-101 21.5h-316v-19h314q49 0 95 -20.5t80 -54.5q35 -35 55 -81q19 -42 18 -87v-9v-9q0 -46 -18 -88 q-20 -46 -55.5 -81t-81.5 -55q-42 -19 -86 -19h-9h-590v19h596q45 0 87 19.5t72.5 51t48.5 73.5q17 38 17 80v9v9q-1 40 -17 79q-18 43 -49.5 75t-73.5 51.5t-87 19.5h-316v-19h314q43 0 82 -17t67.5 -47t46.5 -69q16 -35 15 -73v-9v-9q1 -38 -15 -74q-18 -40 -48 -70 q-29 -28 -68 -46q-35 -16 -73 -16h-9h-590v19h590h9q33 0 65 13q36 15 64 43q28 27 43 63q13 31 13 67v10q0 39 -14 74t-41 62.5t-60.5 44t-72.5 16.5h-318v-18h314q35 0 66.5 -14.5t56 -39t38 -57.5t13.5 -68q0 -37 -13.5 -69.5t-38 -57t-57 -38t-67.5 -13.5h-590v19l596 2 q31 0 58.5 12t49 33.5t32.5 50.5t11 59v2q0 31 -11 59.5t-32.5 50t-50 35t-59.5 13.5h-316v-16l314 -2q27 0 52.5 -11.5t45 -31t29.5 -45t10 -52.5v-5q0 -54 -40 -95t-94 -41h-5h-590l2 541h20v-523h17v523h20v-523h17v523h18v-523h19v523h18v-523h18v523h19v-523h16v523h21 v-523h16v523h21v-523h16v523h20h314h9q75 0 143 -31q72 -33 127 -88t87 -128q30 -69 29 -143v-10v-12q1 -62 -19 -117q-22 -61 -63 -114q57 -53 90 -126q31 -69 31 -142v-9v-9q0 -72 -30 -140q-32 -72 -87 -126q-55 -52 -127 -84q-68 -30 -143 -30h-10h-254h-97h-20v508h-16 v-508h-21v508h-16v-508h-21v508h-16v-508h-19v508h-18v-508h-18v508h-19v-508h-18v508h-17v-508h-20v508h-17v-508h-20zM362 20h351h9q70 0 136 28q70 30 122 81t83 119q29 64 29 134v9v9q0 70 -30 134q-32 68 -85 119l-12 -12q51 -49 81 -113q28 -60 27 -128v-9v-9 q1 -68 -27 -128q-30 -64 -79 -113t-116 -77q-62 -26 -128 -25h-10h-351v-19zM362 57h359q68 0 128 28t106 74q46 47 74 107q26 56 26 116v9v9q0 64 -27 120q-29 60 -76 107l-12 -13q46 -45 72 -102q25 -53 24 -112v-9v-9q0 -58 -24 -112q-26 -58 -72 -102q-44 -44 -104 -70 q-55 -24 -114 -24h-9h-351v-17zM362 92h351h9q56 0 108 22q56 24 98 66q44 40 68 96q23 51 22 106v9v9q0 54 -24 106q-26 56 -68 96q-8 -8 -15 -10q41 -41 65 -92q23 -47 23 -100v-9v-9q1 -50 -21 -98q-24 -52 -64 -91t-92 -61q-48 -21 -100 -21h-9h-351v-19zM362 129h351h9 q48 -1 93 19q49 22 87 58t60 84q20 44 19 92v9v8q1 49 -21 95q-24 50 -63 86q-4 -2 -8 -4.5t-8 -6.5q39 -35 61 -81q21 -42 21 -89v-8v-9q-1 -44 -19 -85q-20 -45 -55 -79t-81 -53.5t-95 -19.5h-115q-51 0 -112.5 1t-123.5 1v-18zM362 164h355q45 0 87 18.5t73.5 50t49 72.5 t17.5 86v8q0 45 -20 85q-22 44 -60 77q-8 -8 -16 -10q36 -29 58 -71q21 -39 20 -81v-8q0 -43 -16.5 -81t-46 -66.5t-68.5 -45t-82 -16.5h-351v-18zM362 201h351q39 0 74.5 15t62.5 41t42 60.5t15 73.5v7q-1 41 -21 77q-22 39 -57 68q-6 -4 -18 -8q35 -25 57 -63 q21 -35 21 -74v-7q0 -35 -13.5 -66.5t-37.5 -54.5q-26 -24 -58 -38q-29 -13 -59 -13h-8q-55 -2 -115 -2h-236v-16zM362 238h357q31 0 58.5 13t49 33.5t32.5 47t11 57.5v2v7q0 39 -22 72q-24 36 -60 56q-10 -2 -26 -6q40 -16 66 -51q25 -33 24 -72v-6q0 -29 -11.5 -53.5 t-30.5 -44t-45 -29.5t-52 -10h-351v-16zM362 272h351h5q46 0 81 35q37 37 35 84q2 47 -35 83t-86 36h-351v-238zM362 788h312h5q46 0 81 36q37 38 35 87q2 47 -35 85q-35 36 -79 36h-5l-314 2v-246z" />
<glyph unicode="c" horiz-adv-x="1060" d="M39 657v19q0 121 48 232q52 120 143.5 210t211.5 144q111 50 232 49h18q13 1 25 1q73 0 143 -20q82 -24 156 -65l-6 -19q-72 40 -152 64q-68 20 -141 21q-12 0 -25 -1h-10q-122 0 -234 -48q-116 -50 -204 -138t-140 -205q-48 -109 -47 -226v-18v-18q-1 -117 47 -225 q52 -116 140 -204q88 -90 204 -142q108 -49 226 -48h18q12 -1 24 -1q77 0 150 23q84 26 158 73l8 -19q-76 -46 -162 -72q-74 -22 -153 -23q-12 0 -25 1h-18q-120 0 -232 49q-120 53 -212 145q-91 90 -143 210q-48 111 -48 232v19zM78 657v19q0 113 45 217q49 113 135 199 t198 135q104 45 217 45h19q12 1 24 1q71 -1 139 -21q79 -24 149 -64l-7 -17q-69 41 -145 63q-70 21 -146 21h-14h-14q-74 1 -142 -19q-76 -22 -143 -61.5t-122.5 -95t-95.5 -123.5q-39 -67 -61 -143q-20 -70 -20 -142v-14v-19q0 -112 44 -212q48 -110 131 -192t193 -132 q101 -46 212 -45h18h7q168 0 311 93l6 -17q-72 -47 -154 -71q-70 -21 -145 -22q-12 0 -25 1h-18q-114 0 -218 46q-112 50 -198 135t-135 199q-45 105 -45 218v18zM115 657v18q0 107 43 205q47 106 127 185.5t185 125.5q101 44 212 44h10q12 1 24 1q69 0 134 -20 q76 -24 141 -65l-4 -16q-67 41 -141 63q-68 21 -141 21h-13h-9q-108 1 -206 -43q-102 -46 -180 -124t-124 -180q-42 -94 -42 -197v-18v-18q0 -103 42 -198q46 -103 124 -181q79 -78 181 -124q94 -42 196 -42h18h13q75 0 147 22q78 24 143 68l6 -16q-67 -44 -145 -68 q-71 -22 -151 -22h-13h-18q-107 0 -204 43q-105 47 -185 127t-127 186q-43 98 -43 205v18zM152 657v18q0 99 40 191q44 100 118 174t174 117q95 41 198 41h10h13q71 0 137 -20q72 -22 139 -64l-6 -16q-61 42 -133 64q-66 21 -137 20h-13h-9q-99 0 -191 -40 q-96 -42 -169 -115t-115 -169q-40 -92 -40 -191v-10v-9q0 -100 40 -192q42 -96 114 -170q74 -73 170 -115q92 -40 191 -40h9h12q72 -1 140 21q74 24 137 67l6 -16q-67 -43 -141 -67q-69 -22 -141 -21h-13h-18q-99 0 -190 40q-99 44 -173.5 118.5t-118.5 174.5 q-40 90 -41 187q0 11 1 22zM188 657v18q0 91 37 175q41 92 112 161.5t163 110.5q88 39 183 39h9h12q68 -1 134 -21q70 -22 131 -63l-4 -16q-59 41 -129 63q-64 21 -132 21h-12h-10q-93 0 -177 -37q-89 -39 -156.5 -106.5t-106.5 -156.5q-37 -85 -37 -178v-10v-10 q0 -93 37 -178q39 -90 106.5 -157.5t156.5 -106.5q85 -37 177 -37h10h12q68 0 132 20q68 22 129 64l8 -14q-61 -40 -132 -64q-65 -22 -137 -22h-12h-9q-95 0 -183 38q-92 40 -163 110.5t-112 162.5q-37 84 -37 176v18zM225 657v9q0 88 36 170q38 86 103 150q64 64 149 102 q81 36 170 36h9h12q66 0 128 -20q68 -22 126 -64l-6 -16q-56 42 -122 64q-61 21 -126 20h-12h-9q-85 0 -163 -34q-82 -36 -146 -100q-62 -62 -98 -144q-34 -77 -34 -163v-10v-10q0 -85 34 -163q36 -83 99 -145.5t145 -98.5q74 -33 154 -33h18q11 -1 22 -1q60 0 114 20 q64 22 122 63l8 -17q-58 -42 -126 -64q-62 -21 -128 -20h-12h-9q-89 0 -170 36q-85 38 -149.5 102.5t-102.5 150.5q-36 82 -36 171v9zM262 657v9q0 81 33 156q35 79 95 138q60 60 138 95q72 32 150 32h14h12q66 -1 124 -21q64 -22 118 -62l-4 -17q-52 41 -116 63 q-54 19 -113 20q-10 0 -21 -1h-10q-78 -1 -148 -31q-74 -32 -132 -89.5t-92 -133.5q-31 -70 -31 -145v-13v-9q-1 -78 31 -150q34 -76 92 -134t132 -90q70 -31 148 -30h10q10 -1 20 -1q56 -1 108 19q60 22 114 62l8 -19q-110 -80 -243 -80h-7h-9q-81 0 -155 33 q-78 35 -138 94.5t-95 139.5q-33 75 -33 156v9zM299 657v9q-1 73 29 141q32 72 86 127q56 55 128 87q68 30 141 30h9h11q63 -1 119 -21q62 -22 114 -63l-6 -19q-48 40 -110 64q-53 20 -109 21q-10 0 -19 -1h-10q-70 0 -134 -28q-68 -30 -120.5 -82t-82.5 -120 q-28 -64 -28 -136v-9v-9q0 -70 28 -136q30 -70 82 -122q53 -52 121 -82q64 -28 134 -27h10h11q57 -1 111 19q60 22 108 58l8 -18q-52 -40 -112 -60q-55 -19 -114 -18h-12h-9q-73 0 -141 30q-72 32 -127 87t-87 127q-30 68 -29 142v9z" />
<glyph unicode="d" horiz-adv-x="1251" d="M86 0v1053h371h11q82 0 159 -29q82 -31 146.5 -85t102.5 -128q36 -70 35 -148v-8v-8q1 -77 -35 -147q-38 -72 -102 -126q-65 -56 -147 -86q-77 -29 -159 -28h-11h-90v-18h90h11q84 0 165 30q86 32 152.5 88t106.5 132q38 73 38 155v8v8q0 83 -38 157q-40 77 -106.5 133.5 t-152.5 88.5q-81 30 -165 29h-11h-371v19h371h11q87 0 170 -31q89 -33 158 -93q70 -58 112 -138q40 -76 40 -165v-8v-8q0 -87 -40 -164q-42 -80 -111.5 -138t-158.5 -91q-84 -31 -170 -31h-11h-90v-18h90h20q86 1 168 31q92 34 164 95.5t116 144.5q42 79 42 171v8v8 q0 91 -42 173q-44 84 -116 145t-164 95q-87 32 -177 32h-11h-371v18h371h11q94 0 184 -32q96 -34 170.5 -98t119.5 -152q43 -84 43 -180v-8.5v-8.5q0 -95 -43 -179q-45 -87 -119.5 -150.5t-170.5 -99.5q-87 -32 -175 -32h-20h-90v-18h90h20q89 0 179 33q100 37 178 103 q76 65 124 156q46 87 46 187v8v9q0 102 -46 188q-48 90 -125 156.5t-177 102.5q-94 34 -188 34h-11h-371v18h371h11q100 -1 196 -35q102 -36 182 -105t129 -163q47 -90 47 -196v-8.5v-9.5q0 -106 -47 -195q-49 -93 -129 -161.5t-182 -106.5q-91 -34 -183 -34q-12 0 -24 1 h-16.5h-27h-27.5h-19v-21h20h29.5t27 1t13.5 1h20q95 0 191 35q106 39 189 109.5t133 168t50 211.5q0 115 -50 213.5t-133 169t-189 108.5q-100 36 -200 36h-11h-371v18h371h20q101 0 199 -36q108 -40 193 -112.5t137.5 -175t52.5 -221.5t-52.5 -220t-137.5 -174t-193 -114 q-97 -37 -195 -37q-12 0 -24 1h-90v-19h90h20q103 0 205 38q112 42 199.5 117t141.5 180t54 228q0 125 -54 229.5t-142 180.5t-200 117q-102 37 -204 37h-20h-187q-82 0 -184 2v18h180h67t60.5 -1t44 -1h19.5h20q107 0 211 -38q114 -42 204.5 -120t147 -186.5t56.5 -237.5 t-56.5 -236.5t-146.5 -185t-205 -120.5q-105 -39 -211 -39h-20h-90v-19h90h20q109 0 217 40q118 44 211.5 124t151 191.5t57.5 244.5t-57.5 246t-151.5 193t-212 123q-106 39 -211 39l-25 -1h-187h-184v21h371h11q118 0 232 -42q120 -44 217 -127t156.5 -198.5t59.5 -253.5 q0 -137 -59.5 -252.5t-155.5 -197.5q-98 -82 -218 -127q-111 -41 -223 -41h-20h-90v-19h90h20q115 0 229 42q124 46 223 130t160.5 203t61.5 262t-61.5 262t-159.5 204q-100 85 -224 131q-115 42 -229 42h-20h-371v19h371h20q119 0 236 -43q127 -47 229 -134t164.5 -210 t62.5 -271q0 -147 -65.5 -269t-170 -209t-234.5 -134q-120 -43 -239 -43h-20h-94v1034h-16v-1034h-21v1034h-16v-1034h-21v1034h-18v-1034h-18v1034h-19v-1034h-18v1034h-19v-1034h-20v1034h-17v-1034h-20v1034h-17v-1034h-20zM367 279h90h11q78 -1 152 27q80 30 140.5 81 t97.5 121q35 66 35 139v8v8q0 73 -35 139q-37 70 -98 122q-60 52 -140 82q-74 28 -152 28h-11h-90v-755z" />
<glyph unicode="e" horiz-adv-x="974" d="M84 0v532h16v-532h-16zM84 532v21h807v-21h-807zM84 569v21h807v-21h-807zM84 606v21h807v-21h-807zM84 643v21h807v-21h-807zM84 680v20h807v-20h-807zM84 717v20h807v-20h-807zM84 754v20h807v-20h-807zM84 791v520h16v-500h19v500h18v-500h19v500h18v-500h19v500h18 v-500h16v500h21v-500h16v500h21v-500h16v500h21v-500h16v500h559v-19h-539v-18h539v-19h-539v-18h539v-18h-539v-19h539v-18h-539v-19h539v-18h-539v-19h539v-18h-539v-18h539v-19h-539v-18h539v-19h-539v-223h533v-20h-807zM119 0v532h18v-532h-18zM156 0v532h18v-532h-18z M193 0v532h18v-532h-18zM227 0v532h21v-532h-21zM264 0v532h21v-532h-21zM301 0v532h21v-532h-21zM338 0v532h20v-258h539v-18h-539v-18h539v-17h-539v-18h539v-19h-539v-18h539v-19h-539v-18h539v-18h-539v-19h539v-18h-539v-19h539v-18h-539v-19h539v-18h-559z" />
<glyph unicode="f" horiz-adv-x="974" d="M84 0v553h807v-21h-533v-532h-20v532h-16v-532h-19v532h-18v-532h-19v532h-18v-532h-19v532h-18v-532h-18v532h-17v-532h-20v532h-17v-532h-20v532h-17v-532h-18zM84 569v21h807v-21h-807zM84 606v21h807v-21h-807zM84 643v21h807v-21h-807zM84 680v20h807v-20h-807z M84 717v18h807v-18h-807zM84 754v18h807v-18h-807zM84 791v520h18v-502h17v502h20v-502h17v502h20v-502h17v502h18v-502h18v502h19v-502h18v502h19v-502h18v502h19v-502h16v502h559v-19h-539v-18h539v-19h-539v-18h539v-18h-539v-19h539v-18h-539v-19h539v-18h-539v-19h539 v-18h-539v-18h539v-19h-539v-18h539v-19h-539v-225h533v-18h-807z" />
<glyph unicode="g" horiz-adv-x="1245" d="M82 657v18q0 121 49 233q53 120 143.5 210t209.5 142q116 51 241 51h10h14q79 0 154 -21q82 -22 154 -63l-4 -19q-72 41 -152 64q-73 20 -152 20h-14h-10q-121 0 -233 -48q-117 -50 -205 -138t-139 -205q-48 -109 -48 -226v-18v-18q0 -117 48 -225q51 -117 139 -205 t205 -139q106 -47 221 -47h22h15q67 0 137 16v20q-70 -16 -137 -16h-15h-19q-112 0 -216 45q-113 49 -198 134t-135 199q-46 106 -46 218v18v18q0 113 46 218q50 113 135 198t198 134q108 47 225 47h10q12 1 24 1q71 0 138 -21q78 -23 150 -64l-7 -17q-68 41 -146 63 q-71 21 -146 21h-13h-14q-72 0 -141 -19q-76 -22 -143.5 -61.5t-123 -95t-95.5 -123t-62 -143.5q-19 -70 -19 -142v-14v-19q0 -110 44 -212q48 -109 131 -191.5t192 -130.5q102 -45 213 -45h18q12 -1 23 -1q66 0 129 20v20q-61 -19 -124 -19q-14 0 -28 1h-18q-107 0 -204 43 q-105 47 -185 127t-127 186q-43 97 -43 203v18v18q0 107 43 205q47 105 127 185t185 126q101 44 212 44h10h13q73 0 144 -21q77 -22 142 -63l-4 -16q-66 41 -140 63q-69 21 -142 21h-13h-9q-108 0 -206 -43q-102 -46 -180 -123.5t-124 -180.5q-42 -94 -42 -197v-18v-18 q0 -103 42 -198q46 -103 124 -181t180 -123q95 -41 197 -41h18q11 -1 22 -1q28 0 55 4q38 5 75 16v22q-37 -10 -75 -16q-28 -5 -58 -5q-9 0 -19 1h-18q-99 0 -190 40q-99 44 -173.5 118.5t-119.5 174.5q-40 89 -40 185q0 11 1 22v18q0 99 40 191q44 99 118.5 173.5 t174.5 117.5q95 41 197 41h10h13q71 0 138 -20q72 -23 138 -64l-6 -16q-61 41 -133 64q-66 20 -137 20h-13h-9q-99 0 -192 -40q-96 -42 -168.5 -115t-114.5 -169q-40 -92 -40 -191v-10v-9q0 -99 40 -192q42 -96 114.5 -168.5t168.5 -115.5q89 -39 183 -39h18q10 -1 19 -1 q30 0 58 5q38 6 75 17v22q-68 -22 -136 -22h-16h-18q-90 0 -174 36q-92 41 -162 111t-111 162q-39 88 -39 185v9v9q0 95 39 184q41 92 111 161.5t162 110.5q88 39 183 39h9h12q70 0 135 -21q70 -22 130 -63l-4 -16q-59 41 -129 63q-64 21 -132 21h-12h-10q-92 0 -177 -37 q-89 -39 -156.5 -106.5t-106.5 -156.5q-37 -85 -37 -178v-10v-10q0 -92 37 -177q39 -89 106.5 -156.5t156.5 -106.5q85 -37 177 -37h10h18q31 0 60 5q37 7 74 18v22q-37 -12 -74 -19q-29 -6 -61 -6h-17h-9q-89 0 -170 36q-85 38 -149.5 102.5t-102.5 149.5q-36 81 -36 170v9 v9q0 89 36 170q38 86 102.5 150.5t149.5 101.5q81 36 170 36h9h12q66 0 127 -20q68 -23 127 -64l-6 -16q-57 41 -123 64q-60 20 -125 20h-12h-9q-85 0 -163 -34q-82 -36 -144.5 -99.5t-98.5 -144.5q-33 -74 -33 -155v-18v-18q0 -80 33 -155q36 -83 98.5 -145.5t144.5 -98.5 q78 -33 162 -33h10h18q31 0 60 5q37 7 74 21v21q-37 -14 -74 -22q-29 -5 -61 -5h-17h-9q-81 0 -156 33q-78 35 -137.5 94.5t-94.5 137.5q-33 75 -33 156v9v9q0 81 33 156q35 79 94.5 138.5t137.5 94.5q73 32 151 32h14h11q64 0 124 -21q66 -22 119 -62l-6 -17 q-53 41 -115 63q-54 20 -112 20q-10 0 -21 -1h-9q-77 0 -148 -31q-76 -32 -133.5 -89.5t-90.5 -133.5q-30 -72 -30 -149v-9v-10q0 -78 30 -149q33 -76 90.5 -133.5t133.5 -90.5q71 -30 148 -30h9q78 0 152 28v21q-35 -14 -73 -23q-31 -6 -63 -6h-16h-9q-73 0 -140 30 q-72 32 -127.5 86t-86.5 126q-30 68 -30 142v9v9q0 73 30 141q31 72 86.5 127t127.5 87q67 30 140 30h9h11q62 0 118 -21q62 -22 113 -63l-4 -19q-51 41 -111 64q-52 21 -108 21q-9 0 -19 -1h-10q-70 0 -135 -28q-68 -29 -120 -81.5t-82 -120.5q-28 -65 -28 -136v-9v-9 q0 -71 28 -136q30 -68 82 -120t120 -82q65 -29 136 -29h9q84 0 152 32v172h-205v21h479v-10v-496h-2h-16v485h-19v-485h-18v485h-19v-485h-16v485h-18v-485h-2h-17v485h-18v-485h-2h-17v485h-18v-485h-2h-16v485h-19v-485h-2h-16v485h-19v-485h-18v20q-70 -16 -137 -16h-15 h-19q-121 0 -232 48q-119 52 -209.5 143.5t-143.5 210.5q-49 112 -49 233v18zM682 522v21h479v-21h-479zM682 559v21h479v-21h-479zM682 596v20h479v-20h-479zM682 633v18h479v-18h-479zM682 670v18h479v-18h-479zM682 705v20h479v-20h-479zM682 741v21h479v-21h-479z" />
<glyph unicode="h" horiz-adv-x="1204" d="M84 0v553h760v16h-760v21h760v16h-760v21h760v16h-760v19h760v18h-760v18h760v19h-760v18h760v19h-760v18h760v16h-760v523h16v-502h19v502h18v-502h19v502h18v-502h19v502h18v-502h18v502h17h2v-502h18v502h17h2v-502h18v502h16h3v-502h18v502h18v-502h486v502h20v-1311 h-20v532h-486v-532h-18v532h-18v-532h-3h-16v532h-18v-532h-2h-17v532h-18v-532h-2h-17v532h-18v-532h-18v532h-19v-532h-18v532h-19v-532h-18v532h-19v-532h-16zM881 0v1311h20v-1311h-20zM918 0v1311h20v-1311h-20zM954 0v1311h19v-1311h-19zM991 0v1311h19v-1311h-19z M1028 0v1311h19v-1311h-19zM1065 0v1311h18v-1311h-18zM1100 0v1311h20v-1311h-20z" />
<glyph unicode="i" horiz-adv-x="417" d="M70 0v1311h20v-1311h-20zM106 0v1311h21v-1311h-21zM143 0v1311h21v-1311h-21zM180 0v1311h21v-1311h-21zM217 0v1311h21v-1311h-21zM254 0v1311h20v-1311h-20zM291 0v1311h20v-1311h-20zM328 0v1311h20v-1311h-20z" />
<glyph unicode="j" horiz-adv-x="808" d="M68 0v20h200q53 0 117 8.5t127 39.5q63 29 113.5 86t72.5 122q10 31 16 68q5 28 5 53v15v98v801h20v-801v-98q1 -8 1 -16q0 -25 -5 -54q-6 -39 -18 -72q-23 -72 -77 -132t-120 -89q-66 -33 -131 -41t-121 -8h-200zM68 37v20q24 1 49 1t50 -1q33 -1 68 -1h35 q54 1 109 10.5t117 33.5q57 27 102 78t64 111q12 33 16 62.5t4 57t-1 53t1 48.5v801h20v-801v-98q0 -29 -5 -65t-15 -64q-23 -66 -70 -119t-108 -82q-66 -27 -123 -36t-111 -10h-27q-40 0 -77 2q-21 1 -42 1zM68 74v20q24 1 49 1t50 -1q33 -1 67 -1h34q51 1 104.5 9.5 t106.5 32.5q51 23 90 68t58 98q17 48 17 95v14q-2 32 -2 61q0 20 1 39v801h21v-801q-1 -19 -1 -39q0 -30 2 -63v-12q0 -49 -20 -101q-18 -59 -60 -106.5t-98 -71.5q-57 -25 -111 -33t-106 -10q-27 -1 -52.5 -1t-50.5 1t-50 1t-49 -1zM68 113v20q24 1 49 1t50 -1q33 -1 67 -1 h33q50 1 99.5 8t96.5 28q49 20 79.5 59t46 86t18.5 99q1 22 1 43q0 28 -2 55v801h21v-801q-1 -24 -1 -48.5t1 -51.5v-10q0 -47 -17 -95q-16 -49 -53 -91t-86 -64q-49 -23 -100.5 -30t-102.5 -8h-34q-34 0 -67 1q-25 1 -50 1t-49 -1zM68 150v20q24 1 49 1t51 -1q34 -1 67 -1 h33q49 1 94.5 8t83.5 26q86 39 109 121q17 59 17 129q0 28 -3 57v801h21v-801q2 -28 2 -56q0 -22 -1 -44q-3 -50 -17.5 -93t-43 -77.5t-75.5 -55.5q-43 -20 -90.5 -27t-96.5 -9h-37q-31 0 -63 2q-28 1 -56 1q-22 0 -44 -1zM68 186v21q24 1 49 1t51 -1q34 -1 66 -1h32 q47 1 89 7t75 23q72 37 90 100q14 46 14 117q0 27 -2 57v801h19v-801q2 -31 2 -58q0 -71 -15 -124q-20 -72 -100 -111q-37 -18 -80 -24.5t-91 -6.5t-99 1h-34q-33 0 -66 -1zM68 225v19q34 1 68 1h34q51 -1 97 -1t84 5t63 19q51 25 71 80q4 16 7.5 28.5t1.5 35.5v98v801h20 v-801q1 -38 1 -69v-29q-1 -41 -11 -71t-29.5 -51.5t-52.5 -39.5q-29 -14 -69 -19.5t-86 -6.5h-31q-32 0 -66 1q-26 1 -51 1zM68 262v21h200q86 0 129 20q23 10 33 22.5t21 34.5q4 14 5 22.5t1 29.5v98v801h20v-801v-98q0 -20 -2 -30.5t-6 -27.5q-18 -49 -63 -69 q-23 -12 -59 -17.5t-81 -6.5q-22 -1 -46 -1t-50 1q-51 1 -102 1z" />
<glyph unicode="k" horiz-adv-x="1191" d="M80 -2v1313h18v-1313h-18zM117 -2v1313h18v-1313h-18zM154 -2v1313h18v-1313h-18zM190 -2v1313h19v-1313h-19zM227 -2v1313h19v-1313h-19zM262 -2v1313h21v-1313h-21zM299 -2v1313h20v-1313h-20zM336 -2v1313h20v-623l426 621h23h2l-451 -658v-30l473 688h21h2l-496 -721 v-33l516 754h21h2l-539 -787v-33l562 820h20h2l-584 -852v-33l607 885h20h2l-629 -918v-31l652 949h20h2l-674 -981v-33l695 1014h20h2l-717 -1047v-33l740 1080h20h2l-379 -555l394 -754h-3h-18l-385 737l-12 -16l377 -721h-2h-19l-369 702l-10 -16l359 -686h-2h-19 l-350 668l-12 -17l342 -651h-2h-21l-332 635l-10 -19l322 -616h-2h-19l-313 600l-12 -16l305 -584h-2h-19l-297 565l-10 -16l287 -549h-2h-19l-278 530l-13 -16l271 -514h-2h-21l-260 496l-205 -299v-199h-20z" />
<glyph unicode="l" d="M80 0v1311h20v-1311h-20zM117 0v1311h20v-1311h-20zM154 0v1311h20v-1311h-20zM190 0v1311h19v-1311h-19zM227 0v1311h19v-1311h-19zM264 0v1311h19v-1311h-19zM301 0v1311h18v-1311h-18zM336 0v1311h20v-1035h559v-2v-16h-559v-18h559v-19h-559v-18h559v-19h-559v-18 h559v-19h-559v-18h559v-16h-559v-19h559v-2v-16h-559v-19h559v-2v-16h-559v-19h559v-2v-18h-559h-20z" />
<glyph unicode="m" horiz-adv-x="1589" d="M80 0l55 1311h19l-56 -1311h-18zM117 0l55 1311h18l-55 -1311h-18zM154 0l55 1311h18l-55 -1311h-18zM190 0l56 1311h18l-55 -1311h-19zM227 0l56 1311h16l-55 -1311h-17zM264 0l55 1303l-2 8h17l342 -1311h-17l-260 997l-43 -997h-18l45 1059l-16 65l-50 -1124h-16 l49 1180l-16 67l-53 -1247h-17zM354 1311h19l342 -1311h-19zM393 1311h19l340 -1311h-17zM432 1311h17l342 -1311h-17zM469 1311h18l342 -1311h-18zM508 1311h16l342 -1311h-16zM545 1311h18l342 -1311h-18zM584 1311h18l201 -768l201 768h16l-209 -803l10 -39l219 842h19 l-228 -875l11 -39l237 914h19l-248 -949l10 -38l258 987h17l-267 -1020l11 -41l276 1061h19l-287 -1094l10 -39l297 1133h16l-303 -1168l11 -39l313 1207h18l-323 -1239l10 -39l334 1278h18h17l55 -1311h-19l-53 1307l-18 -66l53 -1241h-18l-50 1186l-16 -66l47 -1120h-18 l-43 1065l-19 -68l43 -997h-18l-39 942l-246 -942h-20zM1325 1311h16l56 -1311h-19zM1362 1311h16l56 -1311h-19zM1399 1311h16l55 -1311h-18zM1436 1311h18l53 -1311h-18z" />
<glyph unicode="n" horiz-adv-x="1253" d="M82 0v1311h20v-1311h-20zM119 0v1311h20v-1311h-20zM156 0v1311h20v-1311h-20zM193 0v1311h22l610 -1311h-2h-20l-443 952v-952h-20v995l-16 35v-1030h-21v1073l-16 37v-1110h-21v1153l-16 35v-1188h-21v1231l-16 37v-1268h-20zM236 1311h18l612 -1311h-20zM274 1311h21 l600 -1284v43l-580 1241h21l559 -1198v43l-539 1155h21l518 -1110v43l-498 1067h21l477 -1024v43l-457 981h19l438 -936v43l-418 893h21l397 -850v850h18v-1311h-28zM930 0v1311h20v-1311h-20zM967 0v1311h20v-1311h-20zM1004 0v1311h20v-1311h-20zM1040 0v1311h21v-1311 h-21zM1077 0v1311h21v-1311h-21zM1114 0v1311h21v-1311h-21zM1151 0v1311h20v-1311h-20z" />
<glyph unicode="o" horiz-adv-x="1370" d="M80 655v20q0 109 39 216q43 117 124 211t194.5 151.5t248.5 57.5t248 -57.5t193.5 -151.5t123.5 -211q39 -107 39 -216v-20v-20q0 -107 -39 -215q-43 -118 -123.5 -210.5t-193.5 -151t-248 -58.5t-248.5 58.5t-194.5 151.5t-124 211q-39 108 -39 214v20zM100 655v-20 q0 -105 38 -209q42 -114 120 -204.5t187.5 -146t240.5 -55.5t239.5 55.5t186.5 146.5t120 205q40 109 40 218v10v10q0 111 -40 219q-42 114 -120 205t-186.5 147t-239.5 56t-240.5 -56t-187.5 -148q-78 -90 -120 -204q-38 -104 -38 -209v-20zM117 655v20q0 103 37 203 q41 110 116.5 199.5t182 144t233.5 54.5q125 0 231.5 -54.5t182.5 -143.5q76 -90 116 -200q39 -105 39 -212v-10.5v-11.5q-1 -108 -39 -212q-40 -110 -116 -198.5t-182.5 -142.5t-231.5 -54q-127 0 -233.5 54t-182 142.5t-116.5 198.5q-37 101 -37 203v20zM135 655v-20 q0 -99 36 -196q40 -107 113.5 -193t176 -138.5t225.5 -52.5q121 0 223.5 52.5t176 138.5t113.5 194q36 98 36 195v20v20q0 99 -36 197q-40 108 -113.5 193.5t-176 137.5t-223.5 52q-123 0 -225.5 -52t-176.5 -138q-73 -85 -113 -193q-36 -98 -36 -197v-20zM152 655v20 q0 96 34 191q38 105 110.5 188t171.5 134t218 51q117 0 216 -51t171 -134q72 -84 110 -188q36 -99 36 -200v-10.5v-11.5q0 -100 -36 -200q-38 -106 -110 -189t-171 -133t-216 -50q-119 0 -218 50t-171 133t-111 189q-35 94 -35 187q0 12 1 24zM170 655q0 -10 -1 -19 q0 -94 36 -186q39 -102 107.5 -182t164.5 -129q92 -47 200 -47h8.5h9.5q108 0 199 47q95 49 164.5 129t106.5 182q35 96 35 194v11v11q0 99 -35 195q-37 102 -106.5 181.5t-164.5 129t-208 49.5t-209 -49.5t-165 -129.5q-68 -78 -107 -180q-35 -92 -36 -187q1 -10 1 -20z M186 655v10q0 95 35 189q37 100 103.5 178t159.5 125t202 47t201 -47t159.5 -125t103.5 -177q34 -94 34 -189v-11v-11q0 -96 -34 -188q-36 -98 -104 -176q-67 -78 -159 -126q-87 -46 -188 -45h-13h-9q-104 0 -193 46q-93 48 -159.5 125.5t-103.5 175.5q-35 93 -35 189v10z M207 655v-20q-1 -88 31 -172q36 -94 100.5 -170t154 -121t193.5 -45t192.5 45t153 121t98.5 170q33 89 33 181v11v11q-1 92 -33 182q-34 96 -98.5 171t-152.5 121q-84 44 -184 44h-8.5h-9.5q-99 0 -185 -44q-90 -46 -154 -121t-100 -170q-32 -85 -31 -174v-20zM223 655v19 q0 84 31 168q35 94 97.5 166.5t148.5 116.5q82 42 177 42h8.5h9.5q95 0 176 -42q85 -44 147.5 -116.5t96.5 -165.5q32 -88 32 -177v-11v-11q0 -90 -32 -177q-34 -92 -96.5 -164t-147.5 -116t-185 -44t-186 44t-148.5 116t-97.5 164q-31 83 -31 168v20zM242 655v-10 q0 -87 32 -171q34 -89 93 -158.5t141 -111.5q78 -40 169 -40h8.5h9.5q89 0 167 40q82 42 142 112q62 69 94 158q31 84 30 170v11v11q0 86 -30 170q-32 90 -93 159.5t-143 112.5q-78 41 -168 41h-8h-9q-91 0 -169 -41q-82 -43 -142 -112q-58 -70 -92 -159q-32 -84 -32 -172 v-10zM258 655v11q0 84 30 166q32 86 90 153.5t137 108.5q75 39 162 39h8.5h8.5q85 0 161 -39q79 -41 137 -108q58 -68 90 -154q30 -81 30 -166v-11v-11q0 -84 -30 -164q-32 -85 -90 -152.5t-137 -108.5q-75 -39 -161 -39h-8h-9q-87 0 -162 39q-79 41 -137 109 q-58 67 -90 152q-30 80 -30 164v11zM279 655v-11q1 -81 29 -158q30 -83 86 -148q54 -64 130 -102q72 -37 154 -37h8h8q81 1 153 37q75 38 130 102.5t86 147.5q29 78 29 159v10v10q0 81 -29 159q-31 83 -86 147.5t-130 103.5q-71 37 -153 37h-8h-8q-82 0 -154 -37 q-76 -39 -131 -103.5t-86 -147.5q-28 -76 -28 -154v-15zM295 655v11q-1 78 27 153q30 80 84 143q54 62 126 99q69 35 146 35h8h8q78 0 146 -35q72 -37 125 -99.5t83 -142.5q28 -75 27 -153v-11v-11q1 -78 -27 -152q-30 -80 -84 -142q-52 -61 -124 -99q-68 -36 -146 -36h-8 h-8q-76 0 -146 36q-72 38 -126 99.5t-84 141.5q-28 74 -27 152v11zM313 655v-10q0 -75 27 -147q29 -76 80 -136q52 -59 120 -95q65 -34 138 -34h8h8q72 0 136 34q68 36 119.5 95.5t80.5 135.5q27 72 27 147v10v10q0 75 -27 147q-29 77 -80 136q-52 60 -120 96 q-65 34 -136 33h-8h-8q-72 1 -138 -33q-68 -36 -119.5 -95.5t-80.5 -136.5q-27 -72 -27 -147v-10zM330 655v11q0 72 26 141q28 74 76 131t114 91q62 32 132 32h8h8q68 0 130 -32q64 -34 114 -91q48 -57 76 -131q26 -69 26 -141v-11v-11q0 -72 -26 -140q-28 -74 -76 -132 q-50 -56 -114 -90q-61 -32 -130 -32h-8h-8q-70 0 -132 32q-66 34 -114 91t-76 131q-26 69 -26 141v10zM350 655v-11q0 -70 24 -136q26 -70 73 -123t108 -85q57 -30 123 -30h8h8q64 0 122 30q62 32 108 85q48 53 74 124q25 66 24 135v11v11q0 70 -24 136q-26 70 -72 124 q-48 54 -110 86q-59 31 -122 30h-8h-8q-65 0 -123 -30q-61 -32 -107 -86q-48 -54 -74 -124q-25 -66 -24 -136v-11z" />
<glyph unicode="p" horiz-adv-x="1146" d="M82 -2v481h592h9q71 0 137 31q69 33 121 89t83 131q29 70 29 147v10v10q0 76 -29 145q-31 74 -83 130.5t-121 89.5q-66 30 -137 30h-9h-316v-18h316h8q68 0 130 -30q67 -32 116 -85t78 -123q28 -67 28 -139v-10v-10q0 -73 -28 -139q-29 -72 -78 -125.5t-116 -84.5 q-63 -30 -130 -30h-8h-592v20h600q68 0 129 31t107.5 81t73.5 116q24 62 24 131v10v10q0 69 -26 131q-27 66 -74.5 116t-110 79.5t-129.5 29.5h-318v-20h316h9q61 0 116 -27q59 -28 103 -75.5t70 -110.5q25 -60 25 -123v-10v-10q0 -65 -25 -125q-26 -64 -71 -112t-105 -76 q-55 -25 -113 -25h-9l-592 -2v20h592h9q56 0 109 25q56 26 98 72t66 106q23 56 23 117v10v10q0 60 -23 115q-24 59 -65 104t-96.5 71.5t-116.5 26.5h-320v-20h316h9q52 0 101 -22q52 -25 91.5 -68t63.5 -100q22 -52 22 -108v-9v-9q0 -56 -22 -110q-24 -57 -63.5 -100 t-91.5 -68q-47 -22 -98 -22h-12h-592v20h592h8q49 0 94 22q49 23 87 63t59 92q20 48 20 102v10v10q0 51 -20 99q-21 53 -58 92.5t-86 62.5t-102 23h-318v-19h316q49 0 95 -21.5t81 -58.5t56 -86q18 -45 18 -93v-9v-10q0 -49 -18 -95q-21 -49 -56 -87t-81 -59 q-42 -20 -87 -20h-8l-592 2v19h596q45 0 87 20.5t73.5 54t49.5 80.5q17 41 17 85v10v10q0 43 -17 84q-18 45 -49.5 79t-73.5 54.5t-87 20.5h-320v-19l316 -2h8q39 0 74 -16q39 -19 68.5 -50.5t47.5 -73.5q15 -38 15 -78v-9v-10q0 -41 -15 -79q-18 -42 -47.5 -74t-68.5 -50 q-35 -17 -74 -17h-8l-592 -2v21h592q39 0 74.5 16.5t62.5 46t42 67.5t15 81q0 41 -15 77.5t-41 66.5t-60.5 47.5t-71.5 17.5h-322v-21h316q35 0 67.5 -15.5t57 -41t38 -60t13.5 -71.5q0 -39 -13.5 -74t-38 -60.5t-57 -41t-67.5 -15.5h-592v21h598q31 0 58.5 14t48 37 t32.5 53.5t12 63.5v2q0 33 -12 63.5t-33.5 53t-49 37t-58.5 14.5h-320v-19h316q29 0 54.5 -11t45 -32.5t29.5 -48t10 -57.5t-11 -58.5t-30.5 -49t-45.5 -33t-52 -11.5h-592v578h20v-557h17v557h20v-557h17v557h20v-557h17v557h20v-557h16v557h19v-557h18v557h19v-557h18v557 h19v-557h18v557h334h9q75 0 143 -33q73 -35 128.5 -93.5t87.5 -136.5q29 -72 29 -153v-10v-10q0 -81 -29 -155q-32 -79 -87.5 -138.5t-128.5 -93.5q-68 -31 -143 -31h-9h-316v-461h-18v461h-18v-461h-19v461h-18v-461h-19v461h-18v-461h-19v461h-16v-461h-20v461h-17v-461 h-20v461h-17v-461h-20v461h-17v-461h-20zM358 756h316q25 0 46 10t38.5 28.5t27 42t9.5 50.5v5q0 48 -35 86t-81 38h-5h-316v-260z" />
<glyph unicode="q" horiz-adv-x="1376" d="M82 655v20q0 109 39 216q43 117 124 211t194.5 151.5t248.5 57.5t249 -57.5t194.5 -151.5t123.5 -211q39 -107 39 -216v-20v-18q0 -63 -12 -125q-14 -70 -45 -136.5t-75 -127t-99 -107.5q57 -29 114.5 -52t112.5 -40l-4 -18v2q-59 16 -119.5 40.5t-119.5 55.5 q-4 -4 -7.5 -6t-7.5 -6q61 -33 124 -58.5t126 -42.5l-4 -18q-66 18 -131.5 45t-130.5 61q-12 -8 -17 -12q66 -35 134.5 -63.5t140.5 -46.5l-4 -19q-76 20 -147.5 51t-141.5 68q-12 -8 -18 -10q72 -41 147.5 -72t155.5 -53l-6 -19q-84 23 -162 57.5t-154 75.5q-4 -4 -9 -5 t-11 -5q78 -43 160.5 -80t170.5 -59l-4 -18q-94 27 -179 64.5t-169 84.5q-8 -4 -20 -8q86 -49 176 -89t188 -69l-4 -18q-106 29 -199.5 71.5t-183.5 96.5q-16 -4 -22 -7q92 -55 190 -101t211 -77l-4 -18q-121 35 -222.5 83t-199.5 107q-10 -2 -27 -6q102 -61 209 -113.5 t236 -87.5v-2l-6 -16q-135 37 -248 93.5t-221 121.5q-16 -2 -33.5 -3t-34.5 -1q-135 0 -248.5 57.5t-194.5 151.5t-124 211q-39 107 -39 215v20zM102 655v-20q0 -105 38 -209q42 -115 121 -205t187.5 -146.5t239.5 -56.5t239.5 56.5t187.5 146.5t121 205q38 105 38 209v20 v20q0 105 -38 209q-42 115 -121 205.5t-187.5 146.5t-239.5 56t-239.5 -56t-187.5 -146.5t-121 -205.5q-38 -104 -38 -209v-20zM119 655v20q0 103 37 203q41 111 116.5 200t182 143.5t233.5 54.5t233.5 -54.5t182.5 -143.5t116 -200q37 -100 37 -203v-20v-20 q0 -103 -37 -203q-40 -110 -116 -199.5t-182.5 -143.5t-233.5 -54t-233.5 54t-182 143.5t-116.5 199.5q-37 101 -37 203v20zM137 655v-20q0 -99 36 -196q40 -107 113.5 -193t176 -138.5t225.5 -52.5t225.5 52.5t176 138.5t112.5 194q37 102 37 204v11v11q0 103 -37 206 q-39 107 -112.5 193t-176 138t-225.5 52t-225.5 -52t-176 -138t-113.5 -193q-36 -98 -36 -197v-20zM154 655v19q0 97 36 193q39 106 111 189t171 134q95 49 207 49h9h9q114 0 209 -49q100 -51 171.5 -134t109.5 -188q36 -101 36 -202v-11v-11q0 -100 -36 -200 q-38 -106 -109.5 -189t-171 -133t-218.5 -50q-117 0 -216 50t-171 133t-111 189q-36 95 -36 192v19zM174 655v-20q0 -94 34 -185q38 -102 107.5 -182t164.5 -129t208 -49t209 49t164.5 129t106.5 182q36 96 36 195v10v10q0 99 -36 196q-38 102 -106.5 181.5t-164.5 129 t-209 49.5t-208 -49.5t-164.5 -129t-107.5 -180.5q-34 -92 -34 -187v-20zM190 655v20q0 90 33 179q37 100 103.5 178t159.5 125t202 47t202 -47t159.5 -125t103.5 -177q35 -94 35 -190v-10v-10q0 -95 -35 -189q-37 -98 -103.5 -176.5t-159.5 -126t-202 -47.5t-202 47.5 t-159.5 126t-103.5 176.5q-33 89 -33 180v19zM209 655v-20q0 -88 31 -173q36 -95 101 -170t154 -121q85 -44 184 -44h9h9q99 0 185 44q89 46 153.5 121t98.5 170q33 90 33 182v11v11q0 92 -33 182q-34 96 -98.5 172t-153.5 121t-194 45q-104 0 -193 -45t-154 -121t-101 -171 q-31 -85 -31 -174v-20zM225 655v10q0 89 33 177q35 94 97.5 166.5t147.5 116.5t185 44t186.5 -44t148.5 -116.5t96 -165.5q32 -88 32 -177v-11v-11q0 -90 -32 -177q-34 -92 -96 -165t-149 -117q-82 -42 -177 -42h-9h-9q-95 0 -176 42q-85 44 -147.5 117t-97.5 165 q-33 87 -33 178v10zM246 655v-20q0 -81 30 -161q33 -89 92.5 -158.5t141.5 -112.5q78 -41 169 -41h9h8q90 0 169 41q83 43 142.5 112.5t93.5 158.5q32 84 32 171v10v10q0 87 -32 171q-34 90 -93.5 159.5t-142.5 112.5q-79 41 -169 41h-8h-9q-91 0 -169 -41 q-82 -43 -141.5 -112.5t-92.5 -158.5q-30 -80 -30 -162v-20zM262 655v19q0 80 29 158q33 86 90 153.5t136 108.5q75 39 162 39h9h9q87 0 162 -39q79 -41 137.5 -108.5t89.5 -153.5q30 -82 30 -166v-11v-11q0 -84 -30 -165q-31 -86 -89.5 -153.5t-137.5 -108.5 q-75 -39 -162 -39h-9h-9q-87 0 -162 39q-79 41 -136 108.5t-90 153.5q-29 77 -29 157v19zM281 655v-11q0 -80 29 -158q30 -83 85.5 -147.5t130.5 -102.5q72 -37 154 -37h8h8q82 0 154 37q76 38 131 102.5t86 147.5q29 78 29 159v10v10q0 81 -29 160q-31 84 -86 148.5 t-131 103.5q-72 37 -154 37h-8h-8q-82 0 -154 -37q-75 -39 -130.5 -103.5t-85.5 -148.5q-29 -79 -29 -159v-11zM297 655v11q0 78 27 153q30 80 83.5 142.5t126.5 100.5q68 36 146 36h8h8q78 0 146 -36q73 -38 126.5 -100.5t83.5 -142.5q27 -75 27 -153v-11v-11 q0 -78 -27 -152q-30 -80 -83.5 -141.5t-126.5 -99.5q-68 -36 -146 -36h-8h-8q-78 0 -146 36q-73 38 -126.5 99.5t-83.5 141.5q-27 74 -27 152v11zM315 655v-10q0 -75 28 -147q30 -76 80 -135.5t119 -95.5q64 -34 138 -34h8h8q74 0 138 34q69 36 119.5 95.5t80.5 135.5 q27 72 27 147v10v10q0 75 -27 147q-30 77 -80.5 136.5t-119.5 95.5q-64 33 -138 33h-8h-8q-74 0 -138 -33q-69 -36 -119 -95.5t-80 -136.5q-28 -72 -28 -147v-10zM332 655v11q0 72 26 141q27 74 76 131t114 91q62 32 132 32h8h8q70 0 132 -32q65 -34 114 -91t77 -131 q25 -67 25 -137v-15v-11q0 -72 -26 -140q-27 -74 -76 -131.5t-114 -90.5q-62 -32 -132 -32h-8h-8q-70 0 -132 32q-65 33 -114 90.5t-76 131.5q-26 69 -26 141v10zM352 655v-11q0 -70 24 -136q27 -70 73.5 -123t108.5 -86q58 -31 122 -31h8h8q64 0 122 31q63 33 109 86 t73 124q24 66 24 135v11v11q0 70 -24 136q-27 70 -73 123.5t-109 86.5q-58 30 -122 30h-8h-8q-64 0 -122 -30q-62 -33 -108.5 -86.5t-73.5 -123.5q-24 -66 -24 -136v-11z" />
<glyph unicode="r" horiz-adv-x="1140" d="M82 0v479h590h9q71 0 137 31q70 33 121.5 89t82.5 130q29 70 29 146v10v10q0 75 -29 145q-31 74 -83 130q-51 58 -121 90q-65 31 -137 30h-9h-314v-20h314h8q66 0 130 -30q66 -32 116 -85q48 -53 78 -123q28 -66 28 -137v-10v-10q0 -73 -28 -139q-30 -70 -78 -124 q-49 -52 -116 -84q-63 -30 -130 -30h-8h-590v20h598q68 0 128 30t106 81t74 117q26 61 26 129v10v10q0 69 -26 131q-28 66 -75 116t-109 80q-59 28 -122 27h-8l-316 2v-20h314h9q61 -1 116 -27q59 -28 103 -76q44 -46 70 -110q25 -59 25 -123v-10v-10q-1 -65 -25 -123 q-26 -64 -71 -112t-105 -76q-56 -27 -114 -27h-8h-590v20h590h9q57 1 109 25q56 26 98 71t66 105q23 56 23 117v10v9q-1 58 -23 114q-24 60 -65 104.5t-96.5 71t-116.5 26.5h-318v-18h314q57 0 109.5 -24.5t92.5 -66.5q39 -43 63 -99q21 -50 21 -104v-13v-10q0 -55 -22 -107 q-24 -56 -63 -99.5t-91 -68.5q-47 -22 -98 -22h-12l-590 -3v21h590h8q49 0 94 22q49 24 87 64q37 39 59 92q20 48 20 101v10v10q0 51 -20 99q-22 52 -58.5 92t-85.5 62.5t-102 22.5h-316v-18l314 -2h8q45 1 87 -19q46 -22 81 -59q36 -37 56 -86q19 -45 18 -93v-9v-9 q0 -48 -18 -94q-20 -50 -56 -88q-35 -36 -81 -58q-42 -20 -87 -20h-8h-590v21h590q47 0 90 20.5t74.5 54t49 79t17.5 94.5t-18.5 94t-50 79t-73.5 54.5t-87 20.5h-316v-21h314q43 0 82 -18.5t68.5 -49t46 -72.5t16.5 -87q0 -47 -16.5 -88t-46 -73t-68.5 -50.5t-82 -18.5 h-590v21h590h8q34 0 66 14q36 16 63 46t42 68t15 81q0 41 -15 77.5t-41 65.5t-60.5 46.5t-71.5 17.5l-320 2v-21h314q35 0 67.5 -15.5t57 -41t38 -60t13.5 -71.5q0 -39 -13.5 -74t-38 -60.5t-57 -41t-67.5 -15.5h-590v23h596q31 0 58.5 14t49 37t32.5 52.5t11 62.5v2 q0 33 -12 63.5t-33.5 53t-49 37t-58.5 14.5h-318v-19h314q57 0 99 -45q40 -43 40 -99v-5q0 -31 -11.5 -57.5t-30.5 -48t-45 -33t-52 -11.5q-166 -2 -293 -2h-297v19v2v555h20v-555h17v555h20v-555h17v555h20v-555h17v555h20v-555h16v555h21v-555h16v555h19v-555h18v555h19 v-555h18v555h332h9q75 0 143 -32q72 -34 128 -92.5t88 -136.5q30 -73 29 -153v-10v-9q0 -98 -43 -184q-45 -90 -119 -149q82 -125 118 -263.5t40 -279.5h-18q-4 139 -40 273.5t-116 256.5q-4 -2 -12 -10q78 -119 111.5 -252t37.5 -268h-18q-4 133 -39 263t-109 247 q-8 -2 -16 -8q74 -115 108.5 -243t38.5 -259h-20q-4 129 -38 256t-106 238q-4 -2 -8 -4.5t-8 -4.5q72 -109 105.5 -232.5t37.5 -252.5h-20q-4 127 -38 250t-103 229q-4 -2 -8.5 -3t-8.5 -3q70 -104 103.5 -226t38.5 -247h-21q-2 123 -37 244t-104 223q-4 0 -9.5 -1t-9.5 -1 q70 -100 105 -221t39 -244h-21q-2 123 -39 242.5t-104 218.5q-6 0 -11.5 -1t-9.5 -1q70 -96 108 -216t40 -243h-21q-2 123 -41 245t-110 214h-2h-19q72 -92 113 -213t43 -246h-21q0 127 -44 250t-117 209h-269v-459h-18v459h-18v-459h-19v459h-18v-459h-19v459h-16v-459h-21 v459h-16v-459h-20v459h-17v-459h-20v459h-17v-459h-20v459h-17v-459h-20zM358 754h314q25 0 47 10t38.5 28.5t26 42t9.5 50.5v5q0 48 -35 86t-81 38h-5h-314v-260z" />
<glyph unicode="s" horiz-adv-x="1073" d="M78 915v10q0 75 28 142q30 72 83 127t123 87q65 30 136 30h9h436v-19h-436h-9q-68 0 -130 -28q-66 -30 -115 -83t-79 -121q-28 -64 -28 -136v-9v-9q0 -70 28 -136q30 -70 79 -122t115 -82q62 -28 130 -27h9h78h77q52 0 94 -42q39 -39 39 -91v-7q0 -29 -10 -54.5 t-28.5 -44.5t-43 -29.5t-51.5 -10.5h-530v19h530h5q44 0 77 34.5t33 80.5v5q2 47 -34 84t-81 37h-77h-78h-9q-70 0 -136 30q-70 32 -122 87q-54 55 -84 127q-29 68 -28 141v10zM82 4v19h530h9q67 -1 129 27q66 30 117 82t79 122q27 65 27 135v10v10q-1 71 -27 135 q-28 68 -78 120q-52 54 -118 84q-62 29 -129 28h-9h-77h-78q-27 0 -51.5 11.5t-43 31t-28.5 44t-10 52.5q0 27 10 52.5t28.5 45t43 31t51.5 11.5h436v-19h-436q-23 0 -44.5 -9t-37 -26.5t-24.5 -39t-9 -46.5v-5q0 -46 33 -80.5t77 -34.5h5h78h77h9q71 0 137 -30 q70 -32 122 -87t82 -127q29 -68 29 -142v-10v-10q-1 -75 -29 -143q-30 -72 -82 -126t-122 -86q-65 -30 -137 -30h-9h-530zM82 39v18l536 2q63 0 123 28t104 75q43 46 69 108q24 57 24 119v10v10q0 63 -24 119q-26 62 -70.5 109t-104 74.5t-125.5 27.5h-79h-78 q-35 0 -66 13.5t-53.5 38t-35.5 57.5t-13 67q0 35 13 68t35.5 57.5t53.5 38t66 13.5h436v-21h-442q-29 0 -55.5 -13.5t-46 -35t-31 -49t-11.5 -58.5t11.5 -59.5t32 -50t47 -34.5t55.5 -13h82h77h9q65 0 123 -28q62 -30 110 -79t76 -115q26 -61 26 -127v-10v-10 q0 -67 -26 -128q-28 -66 -76 -115q-48 -50 -110 -78q-58 -27 -123 -27h-9q-117 -2 -219 -2h-311zM82 76v18h530h9q53 0 103 22q54 24 94 66q40 44 64 100q22 52 21 107v10v10q1 57 -21 107q-24 56 -64 96.5t-92 65t-110 24.5h-81h-78q-41 0 -78 17.5t-64.5 46.5t-44 67.5 t-16.5 81.5t16.5 82t44 68t64.5 46q33 15 69 15h9h155q66 0 141.5 1t139.5 1v-18h-436q-37 0 -71 -15.5t-60 -42.5q-24 -28 -40 -63q-14 -31 -14 -65v-9v-9q0 -34 12 -64q14 -34 39 -61t59 -43.5t71 -16.5h82h77h9q55 -1 109 -25q58 -26 100 -70t67 -104q23 -55 23 -114v-9 v-10q0 -61 -23 -114q-25 -58 -68 -103q-43 -46 -99 -72q-52 -25 -109 -24h-9h-530zM82 113v18h530h9q45 -1 89 19q48 22 82.5 60t55 87t20.5 102t-20.5 101.5t-55 85.5t-80.5 58.5t-98 21.5h-79h-78q-47 0 -91 19.5t-77 54t-53 80.5q-18 42 -17 86v9v9q-1 44 17 86 q20 46 53 80t77 54q40 19 83 19h8h436v-18h-440q-43 0 -83 -18.5t-70 -50.5t-47 -73.5t-17 -87.5q0 -47 17 -88t48 -73.5t71 -51t83 -18.5h80h77h9q49 0 95 -22q50 -24 88 -62.5t60 -90.5q21 -48 21 -101v-9v-9q-1 -52 -21 -100q-22 -52 -60 -92t-87 -64q-45 -22 -96 -21h-9 h-530zM82 150v18h534q43 0 83 18.5t70 51t47.5 73.5t17.5 88q0 45 -17.5 87t-47.5 74t-70 50.5t-83 18.5h-81h-78q-55 0 -104.5 22.5t-87.5 62.5q-39 40 -61 92q-21 48 -20 100v9v9q0 52 20 100q22 52 60 92q39 38 88 62q45 22 96 22h9h436v-18h-436h-9q-46 0 -90 -20 q-48 -22 -82 -58.5t-54.5 -85.5t-20.5 -103q0 -53 20.5 -102t55 -86t80.5 -58.5t98 -21.5h80h77h8q44 -1 84 -19q44 -20 76 -54q32 -33 52 -79q18 -42 18 -87v-9v-9q0 -44 -18 -86q-20 -46 -52 -81t-76.5 -54t-91.5 -19h-530zM82 186v19h530q37 0 71 15.5t60.5 42t41 62 t14.5 74.5q0 37 -14.5 72t-39 61.5t-58.5 43t-71 16.5h-81h-78q-61 0 -117.5 25.5t-99.5 70.5q-43 46 -68 104q-22 52 -22 109v14v9q0 58 22 114q24 60 67.5 104t99.5 70q52 25 109 25h9h436v-18h-436h-9q-54 0 -104 -23q-54 -25 -94 -67q-38 -42 -62 -97q-22 -51 -22 -107 v-10v-10q0 -57 22 -107q24 -56 63.5 -97.5t91.5 -66t112 -24.5h80h77h9q36 0 69 -15q37 -17 64.5 -46t44 -68t16.5 -82t-16.5 -81.5t-44 -68.5t-64.5 -46.5t-78 -16.5h-530zM82 223v19l536 2q29 0 54.5 12t46 33.5t32 50.5t11.5 59q0 31 -11.5 59.5t-32 50t-47 35 t-55.5 13.5h-81h-78h-9q-66 1 -124 27q-62 28 -110 78t-76 116q-26 61 -25 127v10v9q1 66 27 128q28 66 75 116q47 52 111 80q59 27 122 26h9h436v-19h-442q-66 0 -124.5 -27.5t-102.5 -74.5t-70 -109q-24 -57 -23 -119v-10v-10q1 -63 25 -120q26 -62 70 -109t104 -75 q56 -26 116 -26h9h80h77q33 0 65 -14t54.5 -38.5t35.5 -56.5t13 -67t-13 -67.5t-35.5 -57t-54.5 -38t-65 -13.5h-530z" />
<glyph unicode="t" horiz-adv-x="1153" d="M82 1008v22h989v-22h-385v-1008h-20v1008h-15v-1008h-20v1008h-17v-1008h-18v1008h-16v-1008h-21v1008h-16v-1008h-19v1008h-16v-1008h-21v1008h-16v-1008h-18v1008h-17v-1008h-20v1008h-334zM82 1049v20h989v-20h-989zM82 1087v23h989v-23h-989zM82 1128v23h989v-23 h-989zM82 1169v21h989v-21h-989zM82 1208v23h989v-23h-989zM82 1249v21h989v-21h-989zM82 1288v23h989v-23h-989z" />
<glyph unicode="u" horiz-adv-x="1245" d="M80 573v738h20v-725v-19q0 -91 34 -183q38 -100 107.5 -181.5t167 -132t214.5 -50.5t215 50.5t167.5 131.5t106.5 181q35 95 35 192v11v725h20l-2 -738q0 -104 -39 -206.5t-110.5 -183.5t-172 -132t-220.5 -51q-121 0 -221.5 51t-172 132t-110.5 183.5t-39 206.5z M117 573v738h20v-725v-19q0 -87 32 -173q36 -96 100.5 -170t154.5 -120.5t199 -46.5t199.5 46.5t155 121t99.5 169.5q33 90 33 182v10v725h20l-2 -738q0 -98 -36.5 -193t-104 -172t-160.5 -124t-204 -47t-204 47t-161 124t-104.5 172t-36.5 193zM154 573v738h20v-725v-19 q0 -79 29 -159q33 -88 93 -158t144 -113t183 -43q98 0 182 43t145 113q60 70 92 158q31 83 31 168v10v725h21l-2 -738q0 -92 -35 -181t-97.5 -160.5t-148.5 -114.5t-188 -43t-188.5 43t-149 114.5t-97 160.5t-34.5 181zM190 573v738h19l2 -725v-11q-1 -79 27 -155 q30 -82 85.5 -146.5t132 -103.5t167.5 -39q90 0 166.5 39t132.5 104q56 64 86 146q29 77 28 156v10v725h21l-2 -738q0 -86 -32 -168.5t-90.5 -148.5t-137 -105.5t-172.5 -39.5q-92 0 -172 39.5t-137.5 105.5t-90.5 148.5t-33 168.5zM227 573v738h19l2 -725v-11 q0 -73 26 -143q28 -76 78.5 -135t120.5 -95q66 -34 142 -34h8h8q75 0 143 34q70 36 120 95t78 135q27 71 27 144v10v725h21v-738q0 -80 -31 -156.5t-84 -137t-125.5 -96.5t-156.5 -36t-156 36t-125 96.5t-84 137.5t-31 156zM264 573v738h19l2 -725v-10q-1 -68 23 -132 q26 -70 72 -123t108 -85q59 -31 127 -31h8h8q67 1 126 31q62 32 108 86q46 52 73 122q25 65 25 132v10v725h20v-738q0 -74 -28.5 -144.5t-77 -124.5t-113.5 -87t-141 -33q-74 0 -139.5 33t-115 87t-77 125t-27.5 144zM301 573v738h18l3 -725v-11q0 -61 22 -119 q24 -62 64 -110q41 -50 97 -78q52 -27 110 -26h8h8q59 0 111 26q56 28 98 76q40 50 64 112q22 58 22 119v11v725h20l-2 -738q0 -68 -25.5 -132t-69.5 -113t-102 -79q-54 -28 -116 -28h-8h-8q-61 0 -117 28q-58 30 -102 79t-69.5 113.5t-25.5 131.5zM338 573v738h18l2 -725 v-10q0 -54 20 -106q22 -56 58.5 -99t84.5 -69q43 -23 91 -23h11h8q49 -1 94 23q49 26 86 69t59 98q20 50 19 106v11v725h20l-2 -738q0 -61 -23.5 -119.5t-62.5 -102.5q-39 -43 -90 -69q-47 -24 -100 -24h-8h-8q-53 0 -101 24q-52 26 -90.5 69.5t-62 102t-23.5 119.5z" />
<glyph unicode="v" horiz-adv-x="1269" d="M45 1311h18l402 -1309h-21zM86 1311h16l402 -1309h-19zM125 1311h16l394 -1286l10 32l-381 1254h16l375 -1223l10 33l-364 1190h18l354 -1159l11 32l-344 1127h18l336 -1096l10 33l-325 1063h18l315 -1032l11 32l-306 1000h19l297 -969l297 969h18l-401 -1309h-10h-13z M569 2l402 1309h16l-401 -1309h-17zM608 2l402 1309h16l-401 -1309h-17zM647 2l400 1309h18l-401 -1309h-17zM686 2l399 1309h19l-402 -1309h-16zM725 2l399 1309h19l-402 -1309h-16zM764 2l399 1309h19l-402 -1309h-16zM801 2l401 1309h19l-402 -1309h-18z" />
<glyph unicode="w" horiz-adv-x="1705" d="M51 1311h17l270 -1311h-19zM88 1311h16l271 -1311h-17zM125 1311h18l271 -1311h-19zM164 1311h16l260 -1268l11 51l-250 1217h16l242 -1174l10 51l-231 1123h18l221 -1080l10 52l-213 1028h19l203 -985l10 49l-193 936h19l182 -889l172 889h19l-254 -1311h-11h-8zM471 0 l254 1311h16l-254 -1311h-16zM508 0l254 1311h16l-254 -1311h-16zM545 0l254 1311h18l-254 -1311h-18zM582 0l256 1311h16l-254 -1311h-18zM621 0l253 1311h17l-254 -1311h-16zM657 0l254 1311h17l-254 -1311h-17zM694 0l254 1311h13h6h12l254 -1311h-19l-249 1294l-11 -53 l240 -1241h-16l-232 1198l-10 -53l221 -1145h-16l-213 1102l-10 -53l202 -1049h-18l-195 1006l-8 -54l184 -952h-18l-176 907l-10 -51l165 -856h-16l-158 811l-10 -51l148 -760h-19l-137 711l-139 -711h-19zM999 1311h17l174 -895l184 895h19l-195 -942l10 -52l205 994h17 l-213 -1037l10 -49l223 1086h16l-231 -1129l10 -51l242 1180h18l-252 -1223l9 -51l264 1274h16l-270 -1311h-2h-8h-9zM1292 0l271 1311h16l-268 -1311h-19zM1329 0l270 1311h19l-270 -1311h-19zM1368 0l270 1311h17l-271 -1311h-16z" />
<glyph unicode="x" horiz-adv-x="1312" d="M63 0l420 668l-403 643h20l826 -1311h-21l-258 408l-256 -408h-20l268 424l-12 18l-279 -442h-20l288 459l-12 18l-301 -477h-18l309 494l-12 18l-322 -512h-20l333 528l-12 19l-344 -547h-20l354 563l-12 19l-367 -582h-18l374 598l-12 18l-387 -616h-20l399 631l-12 20 l-410 -651h-23zM123 1311h20l826 -1311h-21zM166 1311h20l826 -1311h-21zM211 1311h18l826 -1311h-21zM254 1311h18l826 -1311h-19zM297 1311h20l826 -1311h-21zM340 1311h20l826 -1311h-21zM383 1311h23l241 -385l242 385h22l-254 -402l13 -18l264 420h20l-274 -437l12 -18 l287 455h18l-295 -471l11 -19l309 490h20l-319 -506l12 -19l330 525h20l-340 -541l13 -18l352 559h18l-360 -576l10 -18l375 594h21l-386 -611l13 -18l395 629h21l-406 -645l420 -666h-23z" />
<glyph unicode="y" horiz-adv-x="1202" d="M51 1311h19l428 -852v-459h-19v457zM92 1311h19l421 -842v-469h-16v465zM133 1311h19l417 -834v-477h-16v473zM174 1311h19l413 -828v-483h-16v481zM215 1311h18l410 -819v-492h-16v492zM256 1311h18l406 -809v-502h-16v500zM297 1311h18l402 -801v-510h-19v508z M338 1311h20l244 -488l244 488h20l-254 -508l11 -23l266 531h18l-274 -549l10 -21l287 570h18l-295 -590l11 -21l307 611h18l-315 -629l10 -23l328 652h18l-336 -670l11 -23l348 693h18l-356 -711l10 -22l369 733h18l-377 -752l10 -22l390 774h18l-399 -795v-516h-19v516z " />
<glyph unicode="z" horiz-adv-x="1097" d="M78 1030v19h903v-19l-553 -749h588v-19h-936v10v9l551 749h-553zM78 1069v16v2h903v-2v-16h-903zM78 1106v16v2h903v-2v-16h-903zM78 1143v18h903v-18h-903zM78 1180v18v2h903v-2v-18h-903zM78 1219v16v2h903v-2v-16h-903zM78 1255v17v2h903v-2v-17h-903zM78 1292v17v2 h903v-2v-17h-903zM80 2v16v2h936v-2v-16h-936zM80 39v16v2h936v-2v-16h-936zM80 76v16v2h936v-2v-16h-936zM80 113v18h936v-18h-936zM80 150v18h936v-18h-936zM80 188v17v2h936v-2v-17h-936zM80 225v17v2h936v-2v-17h-936zM102 281h25l553 749h-25zM152 281h22l553 749h-25z M197 281h24l551 749h-22zM244 281h22l553 749h-22zM291 281h22l553 749h-24zM336 281h24l551 749h-22zM383 281h23l552 749h-22z" />
<glyph unicode="&#xad;" d="M80 516v21h835v-21h-835zM80 553v20h835v-20h-835zM80 590v20h835v-20h-835zM80 629v18h835v-18h-835zM80 666v20h835v-20h-835zM80 702v21h835v-21h-835zM80 739v21h835v-21h-835zM80 776v21h835v-21h-835z" />
<glyph unicode="&#x2000;" horiz-adv-x="682" />
<glyph unicode="&#x2001;" horiz-adv-x="1365" />
<glyph unicode="&#x2002;" horiz-adv-x="682" />
<glyph unicode="&#x2003;" horiz-adv-x="1365" />
<glyph unicode="&#x2004;" horiz-adv-x="455" />
<glyph unicode="&#x2005;" horiz-adv-x="341" />
<glyph unicode="&#x2006;" horiz-adv-x="227" />
<glyph unicode="&#x2007;" horiz-adv-x="227" />
<glyph unicode="&#x2008;" horiz-adv-x="170" />
<glyph unicode="&#x2009;" horiz-adv-x="273" />
<glyph unicode="&#x200a;" horiz-adv-x="75" />
<glyph unicode="&#x2010;" d="M80 516v21h835v-21h-835zM80 553v20h835v-20h-835zM80 590v20h835v-20h-835zM80 629v18h835v-18h-835zM80 666v20h835v-20h-835zM80 702v21h835v-21h-835zM80 739v21h835v-21h-835zM80 776v21h835v-21h-835z" />
<glyph unicode="&#x2011;" d="M80 516v21h835v-21h-835zM80 553v20h835v-20h-835zM80 590v20h835v-20h-835zM80 629v18h835v-18h-835zM80 666v20h835v-20h-835zM80 702v21h835v-21h-835zM80 739v21h835v-21h-835zM80 776v21h835v-21h-835z" />
<glyph unicode="&#x2012;" d="M80 516v21h835v-21h-835zM80 553v20h835v-20h-835zM80 590v20h835v-20h-835zM80 629v18h835v-18h-835zM80 666v20h835v-20h-835zM80 702v21h835v-21h-835zM80 739v21h835v-21h-835zM80 776v21h835v-21h-835z" />
<glyph unicode="&#x2013;" horiz-adv-x="1182" d="M80 516v21h1024v-21h-1024zM80 553v20h1024v-20h-1024zM80 590v20h1024v-20h-1024zM80 629v18h1024v-18h-1024zM80 666v20h1024v-20h-1024zM80 702v21h1024v-21h-1024zM80 739v21h1024v-21h-1024zM80 776v21h1024v-21h-1024z" />
<glyph unicode="&#x2014;" horiz-adv-x="2206" d="M80 516v21h2048v-21h-2048zM80 553v20h2048v-20h-2048zM80 590v20h2048v-20h-2048zM80 629v18h2048v-18h-2048zM80 666v20h2048v-20h-2048zM80 702v21h2048v-21h-2048zM80 739v21h2048v-21h-2048zM80 776v21h2048v-21h-2048z" />
<glyph unicode="&#x202f;" horiz-adv-x="273" />
<glyph unicode="&#x205f;" horiz-adv-x="341" />
<glyph unicode="&#x25fc;" horiz-adv-x="1310" d="M0 0v1311h1311v-1311h-1311z" />
</font>
</defs>
</svg>
